<svg xmlns="http://www.w3.org/2000/svg" xmlns:xlink="http://www.w3.org/1999/xlink" width="384" height="480" viewBox="0 0 384 480"><defs><style>.a,.aa,.ad,.af,.ag,.ai,.ak,.x,.y{fill:none;}.ae,.b{fill:#fff;}.c{fill:#838739;}.d{fill:#a1af4a;}.e{fill:#929b42;}.f{fill:#b2bc55;}.g{fill:#7e8234;}.h{fill:#ffae5c;}.i{fill:#ea9447;}.j{fill:#403d33;}.k{fill:#e7dbd3;}.l{fill:#f3e8de;}.m{fill:#30302f;}.n{fill:#726a56;}.o{fill:#9b8e72;}.p{fill:#5e5746;}.q{fill:#e2caaa;}.r{fill:#d8ad79;}.s{fill:#dd3114;}.t{fill:#ff4217;}.aj,.u{fill:#d15e27;}.v{fill:#f3a396;}.w{fill:#1a1a1a;}.x,.y{stroke:#d26665;}.af,.x,.y{stroke-linecap:round;stroke-linejoin:round;}.x{stroke-width:1.47px;}.y{stroke-width:1.53px;}.z{fill:#0a0a0a;}.aa{stroke:#fff;stroke-width:5.37px;}.aa,.ad,.ag,.ai,.ak{stroke-miterlimit:10;}.ab{fill:#03101e;}.ac{clip-path:url(#a);}.ad,.ai{stroke:#f4f4f2;}.ad{stroke-width:5.45px;}.ae{opacity:0.19;}.af,.ag{stroke:#1a1a1a;}.af{stroke-width:0.87px;}.ag{stroke-width:0.93px;}.ah{clip-path:url(#b);}.ai{stroke-width:5.13px;}.aj{opacity:0.15;}.ak{stroke:#d15e27;stroke-width:3.21px;}</style><clipPath id="a"><path class="a" d="M899.069,697.849s1.061-.456,2.638.7c10.018,7.306,14.841,20.139,12.541,32.628l-7.094,38.717H877.42l1.02-33.971s-2.048-24.258,9.8-38.071Z" transform="translate(-877.42 -697.76)"/></clipPath><clipPath id="b"><path class="a" d="M887.38,711.687c4.961-3.339,11.5-2.3,14.622,2.356a10.416,10.416,0,0,1-1.8,13.257h0l-15.1,15.438L871.53,727.656l13.424-13.743A11.688,11.688,0,0,1,887.38,711.687Z" transform="translate(-871.53 -709.732)"/></clipPath></defs><g transform="translate(-23043.359 -5295)"><rect class="a" width="384" height="480" transform="translate(23043.359 5295)"/><g transform="translate(23063.359 5303.039)"><path class="b" d="M401.272,592.014c-1.365,27.111,3.558,62.481-14.745,84.713-15.3,18.592-43.9,17.39-66.484,16.781-14.555-.371-72.669-.371-87.225,0-22.584.609-51.179,1.811-66.484-16.781-18.3-22.232-13.357-57.6-14.745-84.713-2.111-41.9-.6-178.857.126-222.041.865-51.521,58.062-42.668,94.241-43.781,9.064-.282,51.914-.282,60.978,0,36.164,1.113,93.362-7.728,94.241,43.781C401.877,413.179,403.384,550.117,401.272,592.014Z" transform="translate(-126.29 -257.279)"/><g transform="translate(255.654 62.565)"><path class="c" d="M777.372,336.544h0a.8.8,0,0,1-.026-.089,9.993,9.993,0,0,1-.508-2.549,18.63,18.63,0,0,1,1.258-6.938c.824-2.482,1.71-4.946,2.568-7.421a54.7,54.7,0,0,1,2.508-6.845,4.067,4.067,0,0,1,3.554-2.5,2.364,2.364,0,0,1,1.221-.327c-1.213-1.013-3.169-.056-4.282.742a9.618,9.618,0,0,0-3.232,4.8c-.371,1.024-.66,2.07-.939,3.124-.471,1.113-.846,2.278-1.247,3.213-.846,1.974-1.688,3.951-2.482,5.936-1.406,3.517-2.3,7.332-.427,10.849a9.673,9.673,0,0,0,7.1,4.823,9.48,9.48,0,0,0,3.139.093,10.556,10.556,0,0,1-8.2-6.934Z" transform="translate(-774.276 -309.441)"/><path class="d" d="M804.5,332.164a.6.6,0,0,0-.52-.59c-.03-2.349-1.132-4.419-2.6-6.486a15.213,15.213,0,0,1-2.467-5.487,22.659,22.659,0,0,0-1.625-5.265c-.772-1.506-3.068-3.747-5.09-3.736a2.364,2.364,0,0,0-1.221.327,4.079,4.079,0,0,0-3.554,2.5,54.688,54.688,0,0,0-2.508,6.845c-.857,2.471-1.744,4.935-2.568,7.421a18.483,18.483,0,0,0-1.258,6.938,9.993,9.993,0,0,0,.508,2.549l.033.1a10.556,10.556,0,0,0,8.2,6.935A12.47,12.47,0,0,0,798,342.76C801.533,340.768,804.791,336.4,804.5,332.164Zm-10.637-6.129a.186.186,0,0,1-.2-.074c-.174-.39-.07-.583-.208-1.024-.553-1.777-2.456-1.013-3.232.037a4.106,4.106,0,0,0-.371.6c2.686,1.365,3.851,5.194,3.744,8.04.263-.145.531-.3.813-.456a.686.686,0,0,1,1,.764c-.438,2.568-4.181,2.43-5.81,1.258-2.312-1.67-2.616-4.742-2.015-7.324.527-2.263,1.97-5.495,4.823-5.113C793.66,322.9,795.756,325.43,793.864,326.035Zm-8.942,13.357h0c-.093-.1-.189-.2-.278-.315a7.952,7.952,0,0,1-1.169-1.911l1.317,2.056a1.242,1.242,0,0,0,.13.167Zm2.549-.857a.887.887,0,0,1-.72.371.649.649,0,0,1-.853-.278,2.753,2.753,0,0,1-.23-1.232v-.1a.709.709,0,0,1,.126-.616.742.742,0,0,1,.775-.267,1.287,1.287,0,0,1,.5.293,1.38,1.38,0,0,1,.4,1.829Zm4.935-17.791c-.857,0-.857-1.514,0-1.514s.857,1.51,0,1.51Zm3.425,11.09a.66.66,0,0,1,0-1.317c.646,0,.646,1.313,0,1.313Zm1.892,5.884a.79.79,0,0,1-.939-.16.672.672,0,0,1-.278-.79c.019-.063.044-.126.067-.189a1.328,1.328,0,0,1,.289-.66c.056-.115.108-.23.159-.345a.768.768,0,0,1,1.317,0,1.532,1.532,0,0,1-.6,2.141Z" transform="translate(-778.55 -310.17)"/><path class="e" d="M798.186,348.36c-.6,2.6-.3,5.654,2.015,7.324,1.629,1.172,5.372,1.31,5.81-1.258a.686.686,0,0,0-1-.764c-.282.152-.549.312-.813.456.108-2.835-1.057-6.678-3.744-8.04a4.107,4.107,0,0,1,.371-.6c.775-1.05,2.679-1.814,3.232-.037.137.442.033.634.208,1.024a.185.185,0,0,0,.2.082c1.892-.6-.211-3.135-1.44-3.3C800.175,342.865,798.713,346.1,798.186,348.36Z" transform="translate(-789.146 -330.685)"/><path class="e" d="M819.814,364.27a.66.66,0,0,0,0,1.317C820.46,365.587,820.46,364.27,819.814,364.27Z" transform="translate(-802.534 -343.927)"/><path class="f" d="M794.793,380.373a1.287,1.287,0,0,0-.5-.293.742.742,0,0,0-.775.267.709.709,0,0,0-.126.616v.1a2.754,2.754,0,0,0,.23,1.232.649.649,0,0,0,.853.278.887.887,0,0,0,.72-.371,1.38,1.38,0,0,0-.4-1.833Z" transform="translate(-786.284 -353.856)"/><path class="f" d="M823.122,377.266c-.052.115-.1.23-.16.345a1.329,1.329,0,0,0-.289.66c-.022.063-.048.126-.067.189a.671.671,0,0,0,.278.79.79.79,0,0,0,.939.16,1.532,1.532,0,0,0,.616-2.145A.768.768,0,0,0,823.122,377.266Z" transform="translate(-804.651 -351.866)"/><path class="f" d="M810.53,335.364c.857,0,.857-1.514,0-1.514S809.673,335.364,810.53,335.364Z" transform="translate(-796.674 -324.794)"/></g><g transform="translate(0 236.581)"><path class="e" d="M141.45,846.466l1.855-.931c-.709-1.224-1.4-2.46-2.1-3.684-.946-1.651-1.547-3.387-2.375-5.09a.971.971,0,0,1-.037-.093,3.737,3.737,0,0,1-.909-.156,3.965,3.965,0,0,1-.686-.241,4.2,4.2,0,0,1-.935,2.987,1.236,1.236,0,0,1-.263.623,25.527,25.527,0,0,1,2.653,3.688c.709,1.072,1.391,2.17,2.07,3.265Z" transform="translate(-117.163 -814.819)"/><path class="e" d="M155.717,867.81l-1.347.634a2.775,2.775,0,0,0,1.347-.634Z" transform="translate(-128.718 -834.657)"/><path class="e" d="M120.7,786.329a6.5,6.5,0,0,0-3.759-1.651,5.64,5.64,0,0,0-3.8-5.194,6.826,6.826,0,0,0-4.853.486,11.161,11.161,0,0,0-2.6,1.633,7.643,7.643,0,0,0-9.3-2.452,7.91,7.91,0,0,0-4.052,6.742,5.487,5.487,0,0,0-5.84,2.482,6.527,6.527,0,0,0,1.551,8.367c-3.6,2.226-3.733,7.792-.479,10.66,4,3.547,9.372,2.5,13.491-.137.371.646.9,1.254,1.269,1.814.85,1.28,1.644,2.6,2.523,3.866a.827.827,0,0,1,.3-.4,14.855,14.855,0,0,1,1.829-1.165c-.623-1.113-1.247-2.2-1.855-3.31a27.011,27.011,0,0,1-1.9-3.914c-3.547,2.293-8.764,4.408-12.2.816a4.793,4.793,0,0,1-1.013-5.372,4.316,4.316,0,0,1,2.72-2.3,4.081,4.081,0,0,1-.371-2.256,3.9,3.9,0,0,1,3.221-3.376,5.131,5.131,0,0,1,4.931,2.022,6.144,6.144,0,0,1,1.15,3.128,3.243,3.243,0,0,1,1.265.1,3.629,3.629,0,0,1,0-1.521,4.345,4.345,0,0,1,4.211-3.339,4.268,4.268,0,0,1,3.94,3.985,3.87,3.87,0,0,1-1.633,3.373,4.008,4.008,0,0,1-1.525.742c1.035,1.443,2.174,2.757,3.1,4.293.742,1.239,1.506,2.475,2.248,3.71l.89-.43a1.28,1.28,0,0,1,1.373.13,1.618,1.618,0,0,0-.156-.824c-.616-1.313-1.139-2.679-1.7-4.018-.119-.282-.234-.59-.371-.894,4.549-1.113,8.6-4.6,9.346-9.4A6.887,6.887,0,0,0,120.7,786.329Zm-10.222-3.569a1.2,1.2,0,1,1-.7,1.041A1.2,1.2,0,0,1,110.476,782.76Zm-4.356,2.133a.716.716,0,0,1,.089-.26.99.99,0,0,1,.434-.557.922.922,0,1,1,.9,1.61.95.95,0,0,1-.7.078.7.7,0,0,1-.371-.1.953.953,0,0,1-.282-.289.72.72,0,0,1-.071-.486Zm2.508,3.517a1,1,0,0,1,.141-.49l.16-.208a1.177,1.177,0,0,1,.523-.289.976.976,0,0,1,.627.045,1.221,1.221,0,0,1,.831.627,1.106,1.106,0,0,1-.976,1.662,1.276,1.276,0,0,1-1.013-.534,1.035,1.035,0,0,1-.293-.812Zm-18.633,4.04a1.05,1.05,0,0,1-.66,1.525,1.068,1.068,0,0,1-1.295-1.035c0-.241-.171-.649-.215-.983a.887.887,0,0,1,.412-.946h.033a.4.4,0,0,1,.178-.067.9.9,0,0,1,.95.412C89.62,791.7,89.746,792.106,89.995,792.451Zm7.621-6.111a1.365,1.365,0,0,1,.063.816,1.329,1.329,0,0,1-.122.312,1.051,1.051,0,0,1-.338.371,1.37,1.37,0,0,1-.371.178,1.08,1.08,0,0,1-.835-.167c-.16-.1-.315-.2-.475-.3a.794.794,0,0,1-.345-.861.715.715,0,0,1,.067-.163.991.991,0,0,1,.148-.453,1.113,1.113,0,0,1,.7-.523,1.365,1.365,0,0,1,.972.156,1.276,1.276,0,0,1,.534.638Zm6.378,3.369a1.25,1.25,0,0,1,.186.634,1.184,1.184,0,0,1-1.2,1.154,1.944,1.944,0,0,1-1.692-1.339,1.74,1.74,0,0,1,.442-1.855,1.169,1.169,0,0,1,1.377-.174,1.952,1.952,0,0,1,.89,1.581Zm-1.38-5.194a3,3,0,0,0-3.465-2.3,4.175,4.175,0,0,0-2.018,1.135,1.221,1.221,0,0,1-.957.438c-.627-.063-.1-1.165.048-1.373a4.579,4.579,0,0,1,2.768-1.607c2.427-.43,4.174,1.083,5.324,3.039C105.036,785.075,102.78,785.8,102.613,784.515Zm13.758,13.453a3.986,3.986,0,0,1-4.6-3.154,3.306,3.306,0,0,1,1.61-3.432,3.562,3.562,0,0,1,2.415-1.31,3.866,3.866,0,0,1,4.081,3.625,4.178,4.178,0,0,1-3.506,4.27Z" transform="translate(-85.231 -778.454)"/><path class="g" d="M121.6,830.128l-.89.43c-.742-1.243-1.484-2.478-2.248-3.71-.924-1.536-2.063-2.849-3.1-4.293a4.008,4.008,0,0,0,1.525-.742,3.87,3.87,0,0,0,1.633-3.373,4.28,4.28,0,0,0-3.94-3.985,4.345,4.345,0,0,0-4.211,3.339,3.628,3.628,0,0,0,0,1.521,3.243,3.243,0,0,0-1.265-.1,6.144,6.144,0,0,0-1.15-3.128,5.131,5.131,0,0,0-4.931-2.022,3.9,3.9,0,0,0-3.221,3.376,4.082,4.082,0,0,0,.371,2.256,4.279,4.279,0,0,0-2.72,2.3,4.793,4.793,0,0,0,1.013,5.372c3.439,3.592,8.656,1.484,12.2-.816a27.009,27.009,0,0,0,1.9,3.914c.594,1.113,1.217,2.226,1.855,3.31a14.847,14.847,0,0,0-1.829,1.165.827.827,0,0,0-.3.4,1.113,1.113,0,0,0,1.261,1.325,27.534,27.534,0,0,0,4.634-1.978l.13-.063,1.347-.634c1.083-.508,2.167-1.02,3.235-1.558a1.234,1.234,0,0,0,.1-2.148A1.28,1.28,0,0,0,121.6,830.128Zm-7.45-.582a25.944,25.944,0,0,0-2.653-3.688,1.236,1.236,0,0,0,.234-.609,4.2,4.2,0,0,0,.935-2.987,3.955,3.955,0,0,0,.686.241,3.734,3.734,0,0,0,.909.156.967.967,0,0,0,.037.093c.827,1.7,1.428,3.439,2.375,5.09.7,1.224,1.391,2.46,2.1,3.684l-1.855.931-.712.371C115.54,831.716,114.858,830.618,114.149,829.546Z" transform="translate(-92.645 -800.811)"/><path class="g" d="M128.766,804.449a1.74,1.74,0,0,0-.442,1.855,1.944,1.944,0,0,0,1.692,1.347,1.184,1.184,0,0,0,1.2-1.154,1.25,1.25,0,0,0-.186-.634,1.952,1.952,0,0,0-.89-1.592A1.169,1.169,0,0,0,128.766,804.449Z" transform="translate(-112.271 -794.599)"/><path class="g" d="M112.957,797.46a1.113,1.113,0,0,0-.7.523.991.991,0,0,0-.148.453.717.717,0,0,0-.067.163.794.794,0,0,0,.345.861c.16.1.315.208.475.3a1.08,1.08,0,0,0,.835.167,1.368,1.368,0,0,0,.371-.178,1.049,1.049,0,0,0,.338-.371,1.327,1.327,0,0,0,.122-.312,1.365,1.365,0,0,0-.063-.816,1.276,1.276,0,0,0-.534-.657A1.365,1.365,0,0,0,112.957,797.46Z" transform="translate(-102.079 -790.386)"/><path class="g" d="M160.7,809.758a3.562,3.562,0,0,0-2.415,1.31,3.306,3.306,0,0,0-1.61,3.432,3.986,3.986,0,0,0,4.6,3.154,4.178,4.178,0,0,0,3.517-4.271A3.866,3.866,0,0,0,160.7,809.758Z" transform="translate(-130.138 -798.139)"/><path class="g" d="M149.56,804.879a1.106,1.106,0,0,0,.976-1.662,1.221,1.221,0,0,0-.831-.627.976.976,0,0,0-.627-.045,1.176,1.176,0,0,0-.523.289l-.16.208a1,1,0,0,0-.141.49,1.035,1.035,0,0,0,.282.8A1.276,1.276,0,0,0,149.56,804.879Z" transform="translate(-124.868 -793.587)"/><path class="g" d="M153.244,791.885a1.2,1.2,0,1,0-1.254.052,1.2,1.2,0,0,0,1.254-.052Z" transform="translate(-126.835 -785.493)"/><path class="b" d="M122.35,787.724c-1.15-1.955-2.9-3.469-5.324-3.039a4.578,4.578,0,0,0-2.768,1.607c-.152.208-.675,1.31-.048,1.373a1.221,1.221,0,0,0,.957-.438,4.176,4.176,0,0,1,2.018-1.135,3.008,3.008,0,0,1,3.465,2.3C120.818,789.668,123.074,788.948,122.35,787.724Z" transform="translate(-103.269 -782.327)"/><path class="b" d="M92.81,812.035a.4.4,0,0,0-.178.067H92.6a.887.887,0,0,0-.412.946c.045.334.2.742.215.983a1.068,1.068,0,0,0,1.295,1.035,1.05,1.05,0,0,0,.66-1.525c-.249-.345-.371-.742-.6-1.113A.9.9,0,0,0,92.81,812.035Z" transform="translate(-89.594 -799.563)"/><path class="b" d="M142.246,795.1a.95.95,0,0,0,.7-.078.922.922,0,1,0-.9-1.61.991.991,0,0,0-.434.557.783.783,0,0,0,0,.742.954.954,0,0,0,.282.29A.7.7,0,0,0,142.246,795.1Z" transform="translate(-120.634 -787.789)"/></g><g transform="translate(0.846 49.546)"><path class="e" d="M88.679,274.411c-.805-.312-1.417.7-1.069,1.362,1.877,3.573,3.655,6.857,6.653,9.647a23.308,23.308,0,0,0,8.189,5.142.768.768,0,0,0,.449.141c.234.07.471.137.7.2a35.65,35.65,0,0,1-.583-3.751A27.063,27.063,0,0,0,88.679,274.411Zm8.163,10.229c-1.3-1.176-2.6-2.349-3.888-3.547-.783-.742-2.256-1.558-2.026-2.76a.278.278,0,0,1,.189-.185c1.113-.371,2.271,1.095,3.057,1.74,1.358,1.113,2.7,2.26,4.04,3.4.924.8-.467,2.189-1.391,1.354Zm2.686,2.2c-.712.182-1.161-1.573-.449-1.755a.906.906,0,1,1,.449,1.755Z" transform="translate(-87.51 -274.353)"/><path class="d" d="M103.916,289.617c-1.343-1.139-2.683-2.282-4.04-3.4-.787-.646-1.937-2.115-3.057-1.74a.278.278,0,0,0-.189.186c-.23,1.2,1.243,2.026,2.026,2.76,1.28,1.2,2.6,2.371,3.888,3.547C103.467,291.806,104.859,290.414,103.916,289.617Z" transform="translate(-93.231 -280.683)"/><path class="d" d="M118.08,303.182c-.712.182-.263,1.937.449,1.755a.906.906,0,0,0-.449-1.755Z" transform="translate(-106.512 -292.468)"/><path class="h" d="M129.384,372.09c-.111-.152.052-.334.2-.341,1.51-.082,2.76.338,4.215-.412,1.388-.72,1.614-2.044,2.679-2.968a.672.672,0,0,1,1.113.312,2.738,2.738,0,0,1,.026.95,18.672,18.672,0,0,0,5.272-.371,10.044,10.044,0,0,0,3.451-1.818l.215-.219.126-.052a9.319,9.319,0,0,0,1.08-1.15,9.94,9.94,0,0,0,2.015-5.476v-.252a.783.783,0,0,1-.193-.5,13.719,13.719,0,0,0-1.072-5.506,18.488,18.488,0,0,0-3.187-4.478c-1-1.08-2.081-2.085-3.154-3.1-.167-.122-.334-.245-.5-.371a1.374,1.374,0,0,0-.271-.145l-.371-.586a30.066,30.066,0,0,1-2.7-2.968c-2.081-2.686-2.909-5.877-4.423-8.856a9.576,9.576,0,0,0-3.625-4.133,5.172,5.172,0,0,0-2.783-.768c.137.549.282,1.113.442,1.644a9.942,9.942,0,0,1,1.113.07.742.742,0,0,1-.026,1.484,18.52,18.52,0,0,1-1.855-.082,1.876,1.876,0,0,1-1.569-.623.267.267,0,0,1,0-.371,1.736,1.736,0,0,1,1.484-.493c-.215-.519-.412-1.046-.6-1.573-.4.041-.82.1-1.273.148-.174.022-.393-.16-.256-.341a2.638,2.638,0,0,1,.278-.323,1.224,1.224,0,0,0-.412.226c-3.083,2.6-3.321,7.4-1.811,10.856q.035.065.063.134a.215.215,0,0,1,.319.052c2.657,4.219,2.887,10.044,1.172,14.693-1.054,2.857-2.653,5.428-1.989,8.6.6,2.879,2.686,5.031,3.51,7.766a.668.668,0,0,1-.549.883h0a8.067,8.067,0,0,0,2.174,1.087,4.645,4.645,0,0,0,1.974,2.111,5.781,5.781,0,0,0,4.682.456,5.243,5.243,0,0,0,2.6-2.052,4.979,4.979,0,0,1-1.046-1.176C133.944,373.529,130.745,373.919,129.384,372.09Zm15.724-10.9a4.111,4.111,0,0,0,.427-1.276.92.92,0,1,1,1.837.033,3.265,3.265,0,0,1-.649,1.933c-.4.531-1.113,1.095-1.792.742C144.462,362.365,144.952,361.486,145.108,361.189Zm-14.1-25.248a.783.783,0,0,1,1.306-.742,9.892,9.892,0,0,1,1.072,1.466,1,1,0,0,1-.371,1.347.987.987,0,0,1-1.347-.371,9.9,9.9,0,0,1-.664-1.7Zm.709,27.319a5.38,5.38,0,0,1,.052-1.9.631.631,0,0,1,1.143-.137,5.532,5.532,0,0,1,.575,1.833.9.9,0,1,1-1.77.208Zm-5.851-.371a4.939,4.939,0,0,1-.6-2.538,1.224,1.224,0,0,1,1.532-1.135c2.122.39,4.6,2.823,3.425,5.109a1.08,1.08,0,0,1-1.239,1.061,2.226,2.226,0,0,1-1.755-.2,2.905,2.905,0,0,1-1.362-2.315Z" transform="translate(-109.274 -308.36)"/><path class="i" d="M133.055,334.522c-.063-.148-.119-.293-.178-.442a1.762,1.762,0,0,0-1.484.493.267.267,0,0,0,0,.371,1.876,1.876,0,0,0,1.569.623,18.52,18.52,0,0,0,1.855.082.742.742,0,1,0,.026-1.484,9.942,9.942,0,0,0-1.113-.07l.033.134C133.9,334.648,133.237,334.93,133.055,334.522Z" transform="translate(-115.064 -311.92)"/><path class="i" d="M156.629,348.262c-2.887-3.532-6.953-5.985-9.368-9.921-2.119-3.462-2.824-7.914-6.1-10.585a8,8,0,0,0-5.361-1.818c.1.456.211.913.327,1.373a5.172,5.172,0,0,1,2.783.768,9.576,9.576,0,0,1,3.625,4.133c1.514,2.968,2.341,6.17,4.423,8.856a30.075,30.075,0,0,0,2.7,2.968q.56.553,1.135,1.091c1.072,1.013,2.152,2.018,3.154,3.1a18.487,18.487,0,0,1,3.187,4.478,13.706,13.706,0,0,1,1.072,5.506.783.783,0,0,0,.193.5v.252a9.94,9.94,0,0,1-2.018,5.476,9.321,9.321,0,0,1-1.08,1.15c-.108.1-.223.193-.338.289a10.044,10.044,0,0,1-3.451,1.818,19.833,19.833,0,0,1-5.272.371,2.738,2.738,0,0,0-.026-.95.672.672,0,0,0-1.113-.312c-1.065.924-1.291,2.248-2.679,2.968-1.454.742-2.7.33-4.215.412-.152,0-.315.189-.2.341,1.362,1.829,4.571,1.432,6.563-.019a4.98,4.98,0,0,0,1.046,1.176c2.786,2.267,7.268.464,8.352-3.061v-.03a12.028,12.028,0,0,0,3.773-2.953,11.453,11.453,0,0,0,2.5-5.807,11.13,11.13,0,0,0-.126-3.848C160.032,353.182,158.307,350.314,156.629,348.262Zm-10.608,21.646a7.5,7.5,0,0,1-.909-.148.416.416,0,0,1,0-.8,6.1,6.1,0,0,1,.772-.134.549.549,0,1,1,.126,1.08Z" transform="translate(-117.883 -306.778)"/><path class="i" d="M129.994,328.064c.453-.052.872-.108,1.273-.148-.13-.371-.256-.742-.371-1.135a2.994,2.994,0,0,0-.876.62,2.64,2.64,0,0,0-.278.323C129.6,327.9,129.808,328.086,129.994,328.064Z" transform="translate(-114.043 -307.328)"/><path class="i" d="M122.963,389.708c-.824-2.734-2.909-4.886-3.51-7.766-.664-3.172.935-5.743,1.989-8.6,1.714-4.649,1.484-10.474-1.172-14.693a.215.215,0,0,0-.319-.052.189.189,0,0,0-.067.208,25.047,25.047,0,0,1,.942,8.645c-.312,3.087-1.621,5.718-2.783,8.534a10.76,10.76,0,0,0-.471,7.421c.742,2.423,2.13,5.391,4.126,7.005a.879.879,0,0,0,.716.163.668.668,0,0,0,.549-.864Z" transform="translate(-106.137 -327.309)"/><path class="i" d="M185.068,413.64a3.265,3.265,0,0,0,.649-1.933.92.92,0,1,0-1.837-.033,4.111,4.111,0,0,1-.427,1.276c-.156.3-.646,1.176-.178,1.425C183.962,414.735,184.663,414.159,185.068,413.64Z" transform="translate(-147.62 -360.121)"/><path class="j" d="M130.711,299.519c.186.527.371,1.054.6,1.573.059.148.115.293.178.441.174.408.842.126.72-.293l-.033-.134c-.16-.545-.3-1.095-.442-1.644-.115-.46-.223-.916-.327-1.373a38.671,38.671,0,0,1-.471-15.338.894.894,0,1,0-1.759-.263,39.909,39.909,0,0,0-.174,9.239,35.652,35.652,0,0,0,.583,3.77q.312,1.462.742,2.905C130.455,298.762,130.582,299.14,130.711,299.519Z" transform="translate(-113.488 -278.932)"/><path class="j" d="M161.185,441.559a6.108,6.108,0,0,0-.772.134.416.416,0,0,0,0,.8,7.485,7.485,0,0,0,.909.148.549.549,0,1,0-.126-1.08Z" transform="translate(-133.176 -379.509)"/><path class="b" d="M135.592,416.422c1.172-2.286-1.3-4.719-3.425-5.109a1.224,1.224,0,0,0-1.532,1.135,4.938,4.938,0,0,0,.6,2.538,2.905,2.905,0,0,0,1.362,2.3,2.226,2.226,0,0,0,1.755.2,1.08,1.08,0,0,0,1.239-1.061Z" transform="translate(-114.633 -360.472)"/><path class="b" d="M148.9,419.238a.9.9,0,0,0,.768-1.113,5.532,5.532,0,0,0-.575-1.833.631.631,0,0,0-1.143.137,5.38,5.38,0,0,0-.052,1.9.905.905,0,0,0,1,.905Z" transform="translate(-125.453 -363.436)"/><path class="b" d="M148.072,349.14a1,1,0,0,0,.371-1.347,9.9,9.9,0,0,0-1.072-1.466.783.783,0,0,0-1.306.742,9.9,9.9,0,0,0,.668,1.71.987.987,0,0,0,1.339.36Z" transform="translate(-124.326 -319.485)"/></g><g transform="translate(152.536 398.397)"><path class="d" d="M574.89,1214.737a17.883,17.883,0,0,0-5.276,5.7c-3.614,4.59-5.8,10.237-7.506,15.85-1.729,5.706-3.272,11.453-5.61,16.9-.148.156-.3.312-.438.475a.764.764,0,0,1,.263.156c.408-.371.865-.742,1.295-1.083,1.091-.9,2.163-1.814,3.2-2.775q.742-.679,1.447-1.38c.241-.423.464-.831.66-1.217a40.53,40.53,0,0,0,3.306-10.43c1.024-4.994,1.922-10.526,4.452-15.03a23.981,23.981,0,0,1,4.489-4.545.868.868,0,0,0,.323-.95c.115-.085.226-.167.345-.249A.853.853,0,0,0,574.89,1214.737Z" transform="translate(-533.906 -1214.582)"/><path class="e" d="M544.643,1279.409c-.43.371-.887.7-1.295,1.083a.76.76,0,0,0-.263-.156.627.627,0,0,0-.742.2,41.6,41.6,0,0,0-4.219,5.962,21.016,21.016,0,0,0-2.694,5.873l1.484-1.74a.748.748,0,0,1,1.3.479l.067.056a32.8,32.8,0,0,0,2.968-2.716c1.44-1.384,2.9-2.749,4.352-4.122a115.3,115.3,0,0,0,8.285-8.374c4.178-4.823,7.677-10.389,9.194-16.615q.256-.49.5-.98a.775.775,0,0,0-.4-1.083.82.82,0,0,0-1.4.371c-.063.315-.134.627-.2.935a65.778,65.778,0,0,1-8.363,12.455q-1.855,2.182-3.925,4.2-.712.7-1.447,1.38C546.806,1277.595,545.733,1278.53,544.643,1279.409Zm8.83-6.111a1.543,1.543,0,0,1,.126-.338.59.59,0,1,1,.857.742,1.54,1.54,0,0,1-.315.174.516.516,0,0,1-.668-.579Zm-6.5,6.018-.1.115a.81.81,0,0,0-.163.263l-.152.167a.237.237,0,0,0-.074,0s-.018-.041-.03-.059l-.026-.03Zm-7.049,10.036c-.085.148-.111.323-.2.468-.052.078-.059.089-.022.037l-.059.108a.6.6,0,0,1-.412.3c-.349.082-.609-.26-.6-.582a3.5,3.5,0,0,1,0-.4v-.174a.674.674,0,1,1,1.287.237Zm-.126-2.712q-.493.69-.979,1.384.13-.237.267-.479c.2-.341.408-.679.623-1.017a.421.421,0,0,0,.074.111Zm12.89-10.671c-1.224,1.087-2.423,2.226-3.71,3.235-.742.571-1.532,1.02-2.226,1.629a10.963,10.963,0,0,1-1.981,1.532.141.141,0,0,1-.182-.208,13.888,13.888,0,0,1,1.963-1.974c.538-.519.972-1.113,1.484-1.655,1.143-1.217,2.478-2.282,3.71-3.391.568-.534,1.536.293.928.831Z" transform="translate(-520.93 -1241.272)"/><path class="b" d="M512.341,1347.19l-1.484,1.74q-3.387,4-6.76,8.007l-4.081,4.894a23.676,23.676,0,0,0-3.295,4.133.716.716,0,0,0-.371.467.447.447,0,0,1,.219-.13.619.619,0,0,1,.237-.371,1.376,1.376,0,0,1,2.141,1.406c-.152.649-.935.642-1.484.508a2.288,2.288,0,0,1-.445-.16,1.317,1.317,0,0,0,1.6.631c.894-.289,1.462-1.31,1.985-2q1.313-1.736,2.6-3.477l5.38-7.2a86.336,86.336,0,0,0,5.235-7.183.564.564,0,0,0-.126-.742l-.067-.056A.733.733,0,0,0,512.341,1347.19Z" transform="translate(-496.35 -1297.826)"/><path class="b" d="M544.09,1342.311v.174a3.5,3.5,0,0,0,0,.4c0,.323.256.664.6.583a.6.6,0,0,0,.412-.3l.059-.108c-.037.052-.03.041.022-.037.093-.145.119-.319.2-.468a.681.681,0,1,0-1.3-.237Z" transform="translate(-526.374 -1294.468)"/><path class="d" d="M561.9,1310.613a13.9,13.9,0,0,0-1.963,1.974.141.141,0,0,0,.182.208,10.959,10.959,0,0,0,1.981-1.532c.712-.609,1.506-1.057,2.226-1.629,1.295-1.005,2.493-2.148,3.71-3.235.609-.538-.371-1.365-.961-.831-1.243,1.113-2.579,2.174-3.71,3.391C562.876,1309.5,562.442,1310.094,561.9,1310.613Z" transform="translate(-536.329 -1271.701)"/><path class="d" d="M584.715,1300.326a1.542,1.542,0,0,0,.315-.174.59.59,0,1,0-.857-.742,1.535,1.535,0,0,0-.126.338.516.516,0,0,0,.668.579Z" transform="translate(-551.504 -1267.721)"/></g><path class="k" d="M498.688,1399.19a1.376,1.376,0,0,0-2.141-1.406.619.619,0,0,0-.237.371.447.447,0,0,0-.219.13.464.464,0,0,0-.119.449,1.414,1.414,0,0,0,.8.824,2.288,2.288,0,0,0,.445.16C497.753,1399.824,498.536,1399.832,498.688,1399.19Z" transform="translate(-343.566 -931.256)"/><g transform="translate(6.063 403.467)"><path class="b" d="M161.062,1256.355a12.652,12.652,0,0,0-6.274-6.8,16.138,16.138,0,0,0-4.564-1.358,8.166,8.166,0,0,1-3.874-1.276,2.818,2.818,0,0,1-.575-.664c.022.033-.089-.167-.111-.219a3.454,3.454,0,0,1-.152-.438c0-.022,0-.037-.019-.052l-.041-.163c-.03-.137-.052-.275-.074-.412-.045-.3-.063-.6-.078-.9v-.616c0-.293,0-.586.022-.879s0-.646,0-.972a.842.842,0,0,0,.041-.646c-.026-.085-.056-.167-.082-.252a4.665,4.665,0,0,0-.371-1.536,3.436,3.436,0,0,0-.371-.627,21.139,21.139,0,0,0-3.321-6.256,10.327,10.327,0,0,0-8.059-4.033,11.344,11.344,0,0,0-4.4,1.365,10.156,10.156,0,0,1-2.018.772,8.022,8.022,0,0,1-2.267.167c-1.566-.093-3.1-.464-4.653-.646a10.7,10.7,0,0,0-4.271.308,5.131,5.131,0,0,0-3.888,6.207c.2,1.28.66,2.508.864,3.792a4.923,4.923,0,0,1,0,1.729,3.9,3.9,0,0,1-.95,1.836,14.024,14.024,0,0,1-3.937,2.709,11.06,11.06,0,0,0-5.974,11.346c.583,6.285,6.033,11.045,11.873,12.615a25.95,25.95,0,0,0,10.322.5,12.45,12.45,0,0,1,4.638-.223,2.563,2.563,0,0,1,1.484.976,4.538,4.538,0,0,1,.616,1.662,8.247,8.247,0,0,0,1.592,3.966,7.331,7.331,0,0,0,3.662,2.226c3.15.82,6.337-.33,9.1-1.811,1.607-.865,3.154-1.855,4.7-2.8,1.447-.909,2.909-1.8,4.326-2.749,2.683-1.807,5.261-3.955,6.723-6.9a11.368,11.368,0,0,0,.356-8.934Zm-3.762,8.663a3.907,3.907,0,0,1-.6,1.113,4.59,4.59,0,0,1-2.03,1.588.779.779,0,0,1-.612-1.432,3.71,3.71,0,0,0,1.484-1.046,5.31,5.31,0,0,0,.519-.794,6.856,6.856,0,0,0,.464-.839.456.456,0,0,1,.868.1,3.339,3.339,0,0,1-.1,1.287Zm-12.329,1.555a7.65,7.65,0,0,1-5.25.475,7.383,7.383,0,0,1-5.462-2.189,8.533,8.533,0,0,1-2.044-4.356,11.436,11.436,0,0,1-.186-1.7,11.093,11.093,0,0,1-3.84.575,10.129,10.129,0,0,1-6.831-2.912,11.086,11.086,0,0,1,3.48-18.18,10.046,10.046,0,0,1,1.558-.92,5.571,5.571,0,0,1,1.146-.742,8.644,8.644,0,0,1,5.955-.586,8.867,8.867,0,0,1,4.99,3.48,10.43,10.43,0,0,1,1.918,5.937,11.984,11.984,0,0,1-2.189,6.8,12.457,12.457,0,0,1-.764,1,7.476,7.476,0,0,1,4.326-1.236.594.594,0,0,1,.668-.486,8.033,8.033,0,0,1,7.12,7.536,7.929,7.929,0,0,1-4.6,7.495Zm-37.4-4a10.663,10.663,0,0,1-2.8-5.488A9.476,9.476,0,0,1,104.7,1254c.152-.994.568-2.675,1.762-2.864a.453.453,0,0,1,.516.5c-.134.627-.56,1.158-.72,1.788a6.826,6.826,0,0,0-.171,1.8,8.857,8.857,0,0,0,.7,3.209,9.409,9.409,0,0,0,1.833,2.812,8.867,8.867,0,0,0,1.228,1.069c.479.371,1.213.6,1.484,1.161a.775.775,0,0,1-.594,1.057c-.631.137-1.328-.438-1.818-.787a10.056,10.056,0,0,1-1.358-1.187Zm5.866,2.453h-.022l.111-.033h.082a1.876,1.876,0,0,1,.82.111.744.744,0,1,1-.557,1.38,2.8,2.8,0,0,1-.46-.256,1.677,1.677,0,0,1-.171-.145l-.059-.045.059.045-.115-.111a.374.374,0,0,0-.052-.074.553.553,0,0,1,.33-.872c-.048,0-.041,0,.033-.019Zm.887-32.684a.5.5,0,0,1,.527.664c-.056.2-.152.427-.186.6a.764.764,0,0,0,.093.545.712.712,0,0,1-1.213.712c-.583-.776-.364-2.434.779-2.545Z" transform="translate(-101.573 -1228.249)"/><path class="b" d="M171.45,1305.9l.252.048Z" transform="translate(-145.524 -1277.089)"/><path class="b" d="M188.974,1314.187l.033.137c-.019-.148-.033-.3-.045-.453-.022-.037-.045-.074-.063-.111C188.937,1313.9,188.937,1314.046,188.974,1314.187Z" transform="translate(-156.499 -1282.033)"/><path class="k" d="M161.948,1277.491l-.033-.137c-.03-.141-.052-.286-.074-.427,0,.037.041.074.063.111a7.554,7.554,0,0,1,.8-3.985,6.93,6.93,0,0,1,.62-1,9.881,9.881,0,0,1-7.7,2.007l-.252-.048c-.249-.052-.5-.115-.742-.189a9.565,9.565,0,0,1-5.12-3.836,10.426,10.426,0,0,1-1.64-6.193,10.863,10.863,0,0,1,2.248-6.074,12.24,12.24,0,0,1,2.6-2.519,11.086,11.086,0,0,0-3.48,18.18,10.129,10.129,0,0,0,6.831,2.912,11.087,11.087,0,0,0,3.84-.575,11.437,11.437,0,0,0,.186,1.7,8.534,8.534,0,0,0,2.044,4.356,7.383,7.383,0,0,0,5.462,2.189,7.608,7.608,0,0,1-3.373-1.914A7.769,7.769,0,0,1,161.948,1277.491Z" transform="translate(-129.44 -1245.201)"/><path class="k" d="M115.833,1303.286a.775.775,0,0,0,.594-1.057c-.252-.56-.987-.809-1.484-1.161a8.866,8.866,0,0,1-1.228-1.068,9.41,9.41,0,0,1-1.833-2.812,8.857,8.857,0,0,1-.7-3.209,6.827,6.827,0,0,1,.171-1.8c.16-.631.586-1.161.72-1.788a.453.453,0,0,0-.516-.5c-1.195.189-1.61,1.855-1.762,2.864a9.476,9.476,0,0,0,.059,3.087,10.664,10.664,0,0,0,2.8,5.488A10.051,10.051,0,0,0,114,1302.5C114.5,1302.841,115.2,1303.416,115.833,1303.286Z" transform="translate(-106.681 -1267.018)"/><path class="k" d="M132.9,1330.115l-.059-.045Z" transform="translate(-121.239 -1292.292)"/><path class="k" d="M132.4,1328.143a.374.374,0,0,1,.052.074l.115.111a1.662,1.662,0,0,0,.171.145,2.8,2.8,0,0,0,.46.256.744.744,0,1,0,.557-1.38,1.874,1.874,0,0,0-.82-.111h-.093l-.111.033a.553.553,0,0,0-.33.872Z" transform="translate(-120.896 -1290.506)"/><path class="k" d="M133.413,1327.34h.022Q133.324,1327.362,133.413,1327.34Z" transform="translate(-121.574 -1290.575)"/><path class="k" d="M133.3,1241.71a.712.712,0,0,0,1.213-.712.765.765,0,0,1-.093-.546c.033-.178.13-.4.186-.6a.5.5,0,0,0-.527-.664C132.938,1239.31,132.719,1240.969,133.3,1241.71Z" transform="translate(-121.333 -1235.124)"/><path class="k" d="M244.682,1323.084a6.853,6.853,0,0,1-.464.838,5.31,5.31,0,0,1-.519.794,3.71,3.71,0,0,1-1.484,1.046.779.779,0,0,0,.612,1.432,4.589,4.589,0,0,0,2.03-1.588,3.909,3.909,0,0,0,.6-1.113,3.339,3.339,0,0,0,.082-1.3.456.456,0,0,0-.853-.107Z" transform="translate(-189.741 -1287.74)"/><path class="h" d="M180.769,1271.7a8.033,8.033,0,0,0-7.12-7.536.594.594,0,0,0-.668.486,7.477,7.477,0,0,0-4.326,1.235,12.451,12.451,0,0,0,.764-1,11.984,11.984,0,0,0,2.189-6.8,10.429,10.429,0,0,0-1.918-5.936,8.867,8.867,0,0,0-4.99-3.48,8.646,8.646,0,0,0-5.955.586,5.577,5.577,0,0,0-1.146.742,10.048,10.048,0,0,0-1.558.92,12.245,12.245,0,0,0-2.6,2.519,10.863,10.863,0,0,0-2.248,6.074,10.426,10.426,0,0,0,1.64,6.192,9.565,9.565,0,0,0,5.12,3.837c.249.074.5.137.742.189l.252.048a9.955,9.955,0,0,0,7.7-2.007,6.921,6.921,0,0,0-.62,1,7.554,7.554,0,0,0-.8,3.985,3.667,3.667,0,0,0,.045.453,7.769,7.769,0,0,0,2.267,4.575,7.669,7.669,0,0,0,8.623,1.44A7.929,7.929,0,0,0,180.769,1271.7Zm-3.391-1.992c.345.742-.742,1.169-1.113.486a4.642,4.642,0,0,0-2.712-2.3,4.483,4.483,0,0,0-1.855-.133c-.5.07-1.169.4-1.666.226a.282.282,0,0,1-.156-.371c.208-.653,1.287-.842,1.855-.92a5.567,5.567,0,0,1,2.226.156,5.442,5.442,0,0,1,3.421,2.853Zm.449,2.308c.653.237.249,1.235-.4,1S177.174,1271.779,177.827,1272.016Zm-10.5-12.708c-.686-.249-.263-1.295.419-1.046S168.006,1259.557,167.323,1259.309Zm-.816-3.109c-.4-2.894-3.788-3.614-6.226-3.128a7.888,7.888,0,0,0-4.478,2.7c-.2.238-.4.482-.6.716-.134.152-.349.341-.568.241-.872-.408,1.206-2.434,1.536-2.727a9.034,9.034,0,0,1,6.066-2.226c2.434.048,5.287,1.536,5.513,4.233A.629.629,0,0,1,166.507,1256.2Z" transform="translate(-132.774 -1240.92)"/><path class="b" d="M167.753,1257.519a9.034,9.034,0,0,0-6.066,2.226c-.33.293-2.408,2.319-1.536,2.727.219.1.434-.089.568-.241.2-.234.4-.479.6-.716a7.888,7.888,0,0,1,4.478-2.7c2.438-.486,5.825.234,6.226,3.128a.629.629,0,0,0,1.243-.186C173.033,1259.055,170.179,1257.567,167.753,1257.519Z" transform="translate(-138.283 -1246.658)"/><path class="b" d="M194.511,1274.936c-.683-.249-1.113.8-.419,1.046S195.2,1275.181,194.511,1274.936Z" transform="translate(-159.543 -1257.59)"/><path class="b" d="M203.358,1297.686c-.575.078-1.655.267-1.855.92a.282.282,0,0,0,.156.371c.5.178,1.161-.156,1.666-.226a4.483,4.483,0,0,1,1.855.134,4.642,4.642,0,0,1,2.712,2.3c.371.683,1.484.245,1.113-.486a5.443,5.443,0,0,0-3.432-2.842,5.565,5.565,0,0,0-2.215-.167Z" transform="translate(-164.412 -1271.895)"/><path class="b" d="M221.347,1313c.653.234,1.057-.764.4-1S220.694,1312.763,221.347,1313Z" transform="translate(-176.699 -1280.903)"/></g><circle class="l" cx="7.539" cy="7.539" r="7.539" transform="translate(52.783 119.952) rotate(-76.72)"/><circle class="l" cx="7.539" cy="7.539" r="7.539" transform="translate(54.318 130.993)"/><circle class="l" cx="7.539" cy="7.539" r="7.539" transform="translate(54.318 155.169)"/><circle class="l" cx="7.539" cy="7.539" r="7.539" transform="matrix(0.828, -0.561, 0.561, 0.828, 51.39, 184.864)"/><circle class="l" cx="7.539" cy="7.539" r="7.539" transform="matrix(0.828, -0.561, 0.561, 0.828, 51.389, 209.036)"/><circle class="l" cx="7.539" cy="7.539" r="7.539" transform="translate(51.195 235.232) rotate(-45)"/><circle class="l" cx="7.539" cy="7.539" r="7.539" transform="translate(51.197 259.41) rotate(-45)"/><path class="l" d="M246.7,892.359a7.543,7.543,0,1,1-7.521-7.539A7.543,7.543,0,0,1,246.7,892.359Z" transform="translate(-177.299 -608.774)"/><path class="l" d="M246.7,957.532A7.543,7.543,0,1,1,239.175,950,7.543,7.543,0,0,1,246.7,957.532Z" transform="translate(-177.299 -649.77)"/><path class="l" d="M246.7,1022.679a7.543,7.543,0,1,1-7.521-7.539A7.543,7.543,0,0,1,246.7,1022.679Z" transform="translate(-177.299 -690.742)"/><path class="m" d="M288.218,1045.681a3.926,3.926,0,0,0,1.169,1.028,2.059,2.059,0,0,0,1.855.126c.241-.093.479-.2.716-.293.07-.03.108-.07.048-.141a4.518,4.518,0,0,0-1.725-1.484c-.048,0-.093-.041-.141-.056l-.2-.048a1.794,1.794,0,0,0-1.748.594C288.117,1045.5,288.155,1045.592,288.218,1045.681Z" transform="translate(-212.863 -709.373)"/><g transform="translate(75.503 316.979)"><path class="n" d="M402,1150.547c.115-.182.23-.371.338-.557H402.3A5.676,5.676,0,0,1,402,1150.547Z" transform="translate(-359.974 -1092.538)"/><path class="n" d="M411.053,1135.32c-.453,1.146-.965,2.274-1.514,3.373a19.338,19.338,0,0,1-1.369,3.013A22.773,22.773,0,0,0,411.053,1135.32Z" transform="translate(-363.854 -1083.311)"/><path class="n" d="M419.66,1098.711a.215.215,0,0,0-.2-.171,15.605,15.605,0,0,1,.416,1.751C419.831,1099.776,419.76,1099.249,419.66,1098.711Z" transform="translate(-370.956 -1060.178)"/><path class="n" d="M335.806,1138.084a.541.541,0,0,1,0,.2c-1.113,4.6-4.823,8.96-8.493,11.773a24.659,24.659,0,0,1-7.016,3.77,19.677,19.677,0,0,1-7.632,1.187c-.148,0-.2-.245-.037-.278a42.382,42.382,0,0,0,7.2-1.751,25.692,25.692,0,0,0,5.139-2.62,24.21,24.21,0,0,1-21.241,1.2c-7.05-3.005-13.108-10.129-13.357-18.013a.334.334,0,0,1,.022-.126,20.573,20.573,0,0,1-.742-2.8c.323,3.384.946,6.779,1.388,10.1q.289,2.171.583,4.341c.523,2.8.668,5.617,1.733,8.318a18.84,18.84,0,0,0,4.148,6.367c.289.289.586.568.887.839a39.431,39.431,0,0,0,11.179,4.742c7.443,1.855,15.3.9,21.475-3.855l.371-.3a20.37,20.37,0,0,0,2.048-1.484c.137-.108.267-.223.4-.334a25.07,25.07,0,0,0,4.156-9.131c.059-.326.115-.657.163-.987.026-.182.048-.371.07-.549,0-1-.022-2,0-2.968l.141-9.127c.03-2.033.067-4.081.085-6.1a24.352,24.352,0,0,1-1.755,5.8Q336.3,1137.216,335.806,1138.084Zm-9.613,18.748a.586.586,0,0,1-.1.323v.071a.557.557,0,0,1-1.091-.148,3.4,3.4,0,0,1,.026-.419,2.434,2.434,0,0,1,.041-.33.689.689,0,0,1,.148-.371h0a.33.33,0,0,1,.519-.163.564.564,0,0,1,.442.546Zm4.285-2.122a5.353,5.353,0,0,1-2.252,2.423.6.6,0,0,1-.9-.519,6.308,6.308,0,0,1,.931-3.71,2.653,2.653,0,0,1,.46-1.113,1.2,1.2,0,0,1,2.015.137A3.293,3.293,0,0,1,330.478,1154.709Z" transform="translate(-289.309 -1080.28)"/><path class="o" d="M384.19,1075.326l.226.067c.43-1.02,2.482-.939,3.284-.538a3.187,3.187,0,0,1,1.684,3.054l.16.126.019-.037c.045-.1.1-.2.148-.293a.616.616,0,0,1,.289-.371.651.651,0,0,1,.675,1.113l-.026.03a.666.666,0,0,1-.07.074c-.045.052-.1.1-.145.145a.958.958,0,0,1-.089.082,10.763,10.763,0,0,1,1.974,2.575.787.787,0,0,1,.445.327c3.165,4.545,3.517,10.533,1.692,15.7.549-1.113,1.061-2.226,1.514-3.373a22.325,22.325,0,0,0-.568-13.754c-.323-.864,1.054-1.228,1.376-.371a22.507,22.507,0,0,1,1.143,4.144,15.287,15.287,0,0,0-.219-1.9,15.612,15.612,0,0,0-.416-1.751,16.41,16.41,0,0,0-5.157-7.792,20.19,20.19,0,0,0-4.69-2.968l-.783,1.35C385.826,1072.4,385.021,1073.876,384.19,1075.326ZM394,1076.5a.664.664,0,0,1,.39,0c.093.033.182.074.271.111l.219.1c.056.033.052.026,0,0a.794.794,0,0,1,.486.467.637.637,0,0,1-.935.716,1.218,1.218,0,0,1-.219-.2c-.063-.078-.067-.085-.019,0l-.037-.041c-.048-.052-.093-.108-.137-.163s-.134-.167-.2-.252a.694.694,0,0,1-.115-.371.4.4,0,0,1,.293-.364Z" transform="translate(-348.772 -1041.988)"/><path class="o" d="M289.146,1084.8a34.715,34.715,0,0,0,3.306,9.038,26.423,26.423,0,0,0,5.591,6.775l.056.048a17.773,17.773,0,0,1-6.092-10.9l-.041-.1a.565.565,0,0,1,.033.067,13.261,13.261,0,0,1,.078-3.61,17.005,17.005,0,0,1,4.56-8.752,12.6,12.6,0,0,1,1.759-2.126l.019-.03a7.42,7.42,0,0,1,2.315-3.25.575.575,0,0,1,.82.238,7.906,7.906,0,0,1,5.758-1.031c.586-2.13,3.421-3.71,5.447-3.5a4.13,4.13,0,0,1,3.287,2.623,2.619,2.619,0,0,1,2.286-1.462,2.2,2.2,0,0,1,2.048,1.484,1.524,1.524,0,0,1,.616-.549,1.484,1.484,0,0,1,1.417.033,1.087,1.087,0,0,1,.49,1.221l.111.022.208.048c.861-1.555,1.759-3.087,2.6-4.623l.69-1.258a28.008,28.008,0,0,0-8.671-1.9,38.748,38.748,0,0,0-18.978,3.395.423.423,0,0,0-.241.315,19.551,19.551,0,0,0-4.656,3.71,19.79,19.79,0,0,0-5.083,14.014.167.167,0,0,1,.271.056Zm25.508-20.158c.208-.033.412-.026.62-.048s.371-.052.583-.063c.7-.041.7,1.135,0,1.113-.2,0-.39-.052-.583-.063a3.6,3.6,0,0,1-.62-.048.456.456,0,0,1,0-.89Zm-20.87,9.164c.438-1.633,2.107-3.028,3.358-4.081a23.334,23.334,0,0,1,4.634-3.005,22.486,22.486,0,0,1,5.447-1.829,13.781,13.781,0,0,1,5.261-.327c.508.1.542.979,0,1.057-1.781.252-3.562.137-5.346.516a22.44,22.44,0,0,0-4.957,1.681,21.8,21.8,0,0,0-4.612,2.916c-1.213,1.005-2.226,2.43-3.569,3.221a.148.148,0,0,1-.215-.148Z" transform="translate(-288.812 -1037.963)"/><path class="p" d="M304.889,1156.53a24.209,24.209,0,0,0,21.241-1.2,25.686,25.686,0,0,1-5.139,2.62,42.479,42.479,0,0,1-7.2,1.751c-.167.033-.111.267.037.278a19.469,19.469,0,0,0,7.632-1.187,24.656,24.656,0,0,0,7.016-3.77c3.658-2.812,7.383-7.176,8.493-11.773a.541.541,0,0,0,0-.2,24.876,24.876,0,0,1-25.475,12.006c-8.793-1.484-17.09-8.122-19.961-16.663a.333.333,0,0,0-.022.126C291.781,1146.408,297.843,1153.524,304.889,1156.53Z" transform="translate(-290.478 -1085.242)"/><path class="q" d="M334.433,1078.433a1.087,1.087,0,0,0-.49-1.221,1.484,1.484,0,0,0-1.417-.033,1.525,1.525,0,0,0-.616.549,2.2,2.2,0,0,0-2.048-1.484,2.62,2.62,0,0,0-2.286,1.462,4.129,4.129,0,0,0-3.287-2.623c-2.026-.193-4.86,1.373-5.447,3.5a7.907,7.907,0,0,0-5.758,1.031.575.575,0,0,0-.82-.238,7.421,7.421,0,0,0-2.315,3.25l-.019.03a14.555,14.555,0,0,0-2.378,7.306,13.546,13.546,0,0,0,.163,6.775,21.36,21.36,0,0,0,5.22,8.83,61.473,61.473,0,0,0,6.723,5.7,22.431,22.431,0,0,0,4.185.842,23.965,23.965,0,0,1-3.128-1.41,21.351,21.351,0,0,1-6.467-5.372.371.371,0,0,1-.371.044c-1.6-.868-2.6-3.261-3.258-4.864a13.5,13.5,0,0,1-1.091-6.419.26.26,0,0,1,.215-.223,18.923,18.923,0,0,1-.019-3.209,16.89,16.89,0,0,1,1.284-4.738.271.271,0,0,1,.519.141c-1.362,5.981-.219,12.9,3.625,17.746a19.038,19.038,0,0,0,2.441,2.538,21.768,21.768,0,0,1-4.571-6.808c-1.725-4.081-2.375-9.406-.612-13.591a.331.331,0,0,1,.041-.208,1.634,1.634,0,0,1,.119-.152l.033-.074a.193.193,0,0,1,.163-.1,1.18,1.18,0,0,1,1.447.134,1.547,1.547,0,0,1,.479.772,8.653,8.653,0,0,1,2.319-4.1.371.371,0,0,1,.582.453,25.2,25.2,0,0,0-1.966,4.352,13.141,13.141,0,0,0-.33,4.783,15.666,15.666,0,0,0,3.992,8.5c4.59,5.131,11.209,7.391,17.887,8.029a1.112,1.112,0,0,1,.43.126,19.325,19.325,0,0,0,2.011-1.684,32.758,32.758,0,0,1-8.7-2.349l.349.252a.468.468,0,1,1-.471.809,23.849,23.849,0,0,1-3.128-1.833,1.183,1.183,0,0,1-.134.512,1.206,1.206,0,0,1-1.221.6,3.372,3.372,0,0,1-1.722-1.087,14.934,14.934,0,0,1-1.484-1.54.315.315,0,0,1-.315.1c-2.8-.59-5.154-4.189-6.174-6.627a13.452,13.452,0,0,1-1.046-4.846,7.766,7.766,0,0,1,.675-4,.323.323,0,0,1,.085-.371,1.855,1.855,0,0,1,2.838.4c0-.03.03-.063.048-.093.048-.089.215-.082.23.03s.041.312.059.468a13.4,13.4,0,0,1,4.334-7.988c.189-.156.46.1.275.275a9.75,9.75,0,0,0-2.809,4.081,12.633,12.633,0,0,0-.683,4.56,14.933,14.933,0,0,0,3.072,8.5,17.454,17.454,0,0,0,1.9,2.1,17.769,17.769,0,0,1-1.4-1.588c-2.631-3.376-4.412-8.43-2.905-12.615a.211.211,0,0,1,.03-.048c.33-1.347,2.018-1.2,2.753-.212a2.558,2.558,0,0,1,.249.434c.148-.182.512-.178.56.1,1.67,9.276,9.628,16.051,19.06,15.446.156-.434.289-.876.408-1.317-5.1-1.3-10.667-3.08-14.1-7.3-2.72-3.339-4.367-8.927-1.195-12.515a.365.365,0,0,1,.6.371,10.084,10.084,0,0,0,2.668,11.843c3.506,3.213,8.059,4.352,12.455,5.61.078-.531.126-1.065.156-1.6-3-1.7-6.152-3.317-9-5.28-3.71-1.217-5.647-6.6-3.465-9.84a.16.16,0,0,1,.289.122,12.532,12.532,0,0,0-.371,2.226.115.115,0,0,1,.063.063c.041.085.074.174.108.26.657-1.484,1.417-2.92,2.226-4.348l-.208-.048Zm-24.187,6.255c.126-.245.26-.486.4-.742a.672.672,0,0,0,.345-.371c.056-.137.119-.274.178-.408a8.233,8.233,0,0,1,3.629-2.8.312.312,0,0,1-.108.371A51.078,51.078,0,0,0,310.246,1084.689Zm10.311-2.274c-.111.393-.223.787-.33,1.18a.456.456,0,0,1-.89-.122,1.3,1.3,0,0,1,.045-1.065,1.669,1.669,0,0,1,.215-.349.37.37,0,0,1,.234-.13.4.4,0,0,0,.052-.033.468.468,0,0,1,.675.527Zm9.469,9.624a2.226,2.226,0,0,1,.768.742.46.46,0,0,1-.623.623,2.345,2.345,0,0,1-.742-.772.434.434,0,0,1,.6-.586Zm-2.6-4.853c.416,1.31,1.388,2.371,1.759,3.655a.371.371,0,0,1-.527.4c-1.221-.712-1.855-2.482-2.271-3.773a8.265,8.265,0,0,1-.3-4.73.371.371,0,0,1,.7.1,22.612,22.612,0,0,0,.649,4.356Z" transform="translate(-300.346 -1045.413)"/><path class="q" d="M356.5,1147.57Z" transform="translate(-331.355 -1091.016)"/><path class="q" d="M349.03,1160.729a1.855,1.855,0,0,1-1.31,1.258,31.54,31.54,0,0,0,7.914,1.981.742.742,0,0,1,.542.334l.115-.026a20.345,20.345,0,0,0,4.133-1.555c-1.161-.171-2.319-.393-3.465-.668a.256.256,0,0,1,0,.093.493.493,0,0,1-.152.56.46.46,0,0,1-.6.16c-.371-.219-.742-.5-1.113-.742a.471.471,0,0,1-.2-.312.3.3,0,0,1-.037-.33,26.953,26.953,0,0,1-6.152-2.742A2.245,2.245,0,0,1,349.03,1160.729Z" transform="translate(-325.833 -1098.042)"/><path class="q" d="M377.635,1146.17l-.145-.1a.244.244,0,0,1,0,.052Z" transform="translate(-344.558 -1090.073)"/><path class="q" d="M376.477,1088.906c3.009-1.673,7.469-.742,10.37.809a.709.709,0,0,1,.371,0,10.762,10.762,0,0,0-1.974-2.575.974.974,0,0,0,.089-.082c.048-.048.1-.093.145-.145a.661.661,0,0,0,.071-.074l.026-.03a.646.646,0,0,0-.675-1.1.616.616,0,0,0-.289.371c-.052.1-.1.193-.148.293l-.019.037-.16-.126a3.187,3.187,0,0,0-1.684-3.054c-.8-.4-2.853-.482-3.284.538l-.226-.067a53.912,53.912,0,0,1-3.039,4.823c.026.115.048.23.074.345A.575.575,0,0,1,376.477,1088.906Z" transform="translate(-343.652 -1050.372)"/><path class="q" d="M378.37,1143.343a.631.631,0,0,1-.568.935,9.411,9.411,0,0,1-1.807-.226,34.227,34.227,0,0,0,8.163,1.7h.056a15.371,15.371,0,0,0,1.009-1.436c.1-.178.2-.371.3-.542h.041c.1-.178.208-.371.308-.549a18.975,18.975,0,0,1-10.548-3.124c1.046.831,2.1,1.64,3.065,2.564a.464.464,0,0,1-.015.679Z" transform="translate(-343.193 -1086.318)"/><path class="q" d="M302.77,1122.37a17.29,17.29,0,0,1-.2-4.99,11.872,11.872,0,0,0-.887,4.619c.048,5.194,3.651,9.717,7.792,12.615A24.222,24.222,0,0,1,302.77,1122.37Z" transform="translate(-296.874 -1072.027)"/><path class="r" d="M374.961,1095.18q-.026.371-.022.742c.063-.145.126-.29.193-.434-.033-.085-.067-.174-.108-.26A.114.114,0,0,0,374.961,1095.18Z" transform="translate(-342.953 -1058.064)"/><path class="r" d="M319.859,1089.771a.312.312,0,0,0,.108-.371,8.232,8.232,0,0,0-3.629,2.8c-.059.134-.122.271-.178.408a.672.672,0,0,1-.345.371,8.282,8.282,0,0,0-.4.742A51.073,51.073,0,0,1,319.859,1089.771Z" transform="translate(-305.511 -1054.429)"/><path class="r" d="M338.571,1101.973c-.03.534-.078,1.068-.156,1.6-4.4-1.258-8.994-2.441-12.455-5.61a10.129,10.129,0,0,1-2.668-11.843c.134-.338-.371-.609-.6-.371-3.172,3.588-1.525,9.179,1.195,12.515,3.443,4.219,9.012,6,14.1,7.3-.119.442-.252.883-.408,1.317-9.432.6-17.39-6.174-19.06-15.446-.048-.278-.412-.282-.56-.1a6.055,6.055,0,0,1,.371,1.855,17,17,0,0,0,.95,4.059,18.284,18.284,0,0,0,4.426,6.519,28.509,28.509,0,0,0,2.408,2.074,18.974,18.974,0,0,0,10.548,3.124c-.1.185-.2.371-.308.549s-.223.371-.338.557c-.315.5-.649.976-1.009,1.436h-.056a34.226,34.226,0,0,1-8.163-1.7,16,16,0,0,1-7.543-4.426,17.466,17.466,0,0,1-1.9-2.1,14.934,14.934,0,0,1-3.072-8.5,12.633,12.633,0,0,1,.683-4.56,9.751,9.751,0,0,1,2.809-4.081c.185-.171-.085-.43-.275-.275a13.4,13.4,0,0,0-4.334,7.988,29.319,29.319,0,0,0,.523,4.927,15.654,15.654,0,0,0,2.5,5.087c2.274,3.105,5.343,5.005,8.389,7.2a32.762,32.762,0,0,0,8.7,2.349,19.361,19.361,0,0,1-2.011,1.684,1.114,1.114,0,0,0-.43-.126c-6.678-.623-13.309-2.9-17.906-8.01a15.666,15.666,0,0,1-3.992-8.5,13.141,13.141,0,0,1,.33-4.783,24.578,24.578,0,0,1,1.966-4.352.371.371,0,0,0-.583-.453,8.779,8.779,0,0,0-2.319,4.1,8.027,8.027,0,0,1-.033,2.46,19.394,19.394,0,0,0,1.966,9.276,20.238,20.238,0,0,0,1.428,2.471c.193.256.371.508.519.742.245.334.5.653.768.969.991,1.157,2.2,2.022,3.269,3.087a4.708,4.708,0,0,1,.631.779,26.953,26.953,0,0,0,6.152,2.742.293.293,0,0,1,.208-.163.453.453,0,0,1,.516-.23h.03a.98.98,0,0,1,.954.445,1.484,1.484,0,0,1,.345.412.423.423,0,0,1,.033.1c1.146.275,2.3.5,3.465.668a20.345,20.345,0,0,1-4.133,1.555l-.115.026a.742.742,0,0,0-.542-.334,31.07,31.07,0,0,1-7.914-1.981,1.729,1.729,0,0,1-.557.026.568.568,0,0,1-.479-.408,13.635,13.635,0,0,1-3.61-2.6,19.031,19.031,0,0,1-2.441-2.538c-3.844-4.823-4.987-11.765-3.625-17.746a.271.271,0,0,0-.519-.141,16.892,16.892,0,0,0-1.284,4.738,18.923,18.923,0,0,0,.019,3.209.189.189,0,0,1,.234.16,31.354,31.354,0,0,0,1.506,5.784,17.648,17.648,0,0,0,1.44,2.861,12.3,12.3,0,0,1,1.428,2.338.286.286,0,0,1-.1.319,21.348,21.348,0,0,0,6.467,5.373,23.951,23.951,0,0,0,3.128,1.41,22.431,22.431,0,0,1-4.185-.842,61.471,61.471,0,0,1-6.723-5.7,21.408,21.408,0,0,1-5.22-8.831,13.546,13.546,0,0,1-.163-6.775,14.555,14.555,0,0,1,2.378-7.306,12.6,12.6,0,0,0-1.759,2.126,17.005,17.005,0,0,0-4.56,8.753,13.259,13.259,0,0,0-.078,3.61v.033a17.813,17.813,0,0,0,6.092,10.9,24.013,24.013,0,0,0,28.165,2.4,21.942,21.942,0,0,0,6.864-6.679,19.328,19.328,0,0,0,1.369-3.013c1.825-5.168,1.484-11.157-1.692-15.7a.787.787,0,0,0-.445-.327.709.709,0,0,0-.371,0c-2.9-1.551-7.361-2.482-10.37-.809a.575.575,0,0,0-.371,0c-.026-.115-.048-.23-.074-.345l-.045.067a.234.234,0,0,1-.312.078,6.055,6.055,0,0,0,.924,2.827c1.057,1.67,2.6,2.289,4.3,3.065.323.145.152.646-.171.642a4.949,4.949,0,0,1-1.484-.252C332.419,1098.656,335.569,1100.255,338.571,1101.973Zm-31.994,12.7c-4.137-2.909-7.74-7.421-7.792-12.615a11.872,11.872,0,0,1,.887-4.619,17.29,17.29,0,0,0,.2,4.99A24.368,24.368,0,0,0,306.577,1114.673Zm30.547-20.518a4.211,4.211,0,0,1,1.321,3.376c-.022.861-1.373.857-1.339,0a10.1,10.1,0,0,0-.471-3.094.3.3,0,0,1,.49-.282Zm-4.823,3.272a.3.3,0,0,1,.182-.442,1.529,1.529,0,0,1,1,.145.43.43,0,1,1-.234.828C332.92,1097.85,332.493,1097.754,332.3,1097.427Z" transform="translate(-293.984 -1052.075)"/><path class="j" d="M384.1,1017.282a.39.39,0,0,0,.512-.134,117.764,117.764,0,0,0,12.081-20.874.464.464,0,0,0-.271-.668c-.352-.122-.7-.256-1.039-.408a.494.494,0,0,0-.649.189.627.627,0,0,0-.627.338q-5.194,9.324-10.415,18.652c-1.484,2.649-2.939,5.313-4.4,7.977l-.69,1.258c-.846,1.536-1.744,3.068-2.6,4.623-.794,1.428-1.555,2.872-2.226,4.348-.067.145-.13.289-.193.434q0-.371.022-.742a12.534,12.534,0,0,1,.371-2.226.16.16,0,0,0-.289-.122c-2.182,3.235-.241,8.623,3.465,9.84a4.953,4.953,0,0,0,1.484.252c.323,0,.493-.5.171-.642-1.714-.775-3.239-1.4-4.3-3.065a6.054,6.054,0,0,1-.924-2.827.234.234,0,0,0,.312-.078l.044-.067a53.9,53.9,0,0,0,3.039-4.823c.831-1.462,1.636-2.935,2.467-4.371l.783-1.35,3.339-5.766a5.17,5.17,0,0,0,.527.252Z" transform="translate(-341.59 -995.145)"/><path class="j" d="M392.881,1117.078a.436.436,0,0,0,.226-.842,1.529,1.529,0,0,0-1-.145.3.3,0,0,0-.182.442C392.121,1116.867,392.547,1116.964,392.881,1117.078Z" transform="translate(-353.612 -1071.188)"/><path class="s" d="M356.072,1117.409a9.4,9.4,0,0,0,1.807.226.631.631,0,0,0,.568-.935.464.464,0,0,0,0-.683c-.961-.924-2.018-1.733-3.065-2.564a28.46,28.46,0,0,1-2.408-2.074,18.284,18.284,0,0,1-4.426-6.519,17,17,0,0,1-.95-4.059,6.054,6.054,0,0,0-.371-1.855,2.558,2.558,0,0,0-.249-.434c-.742-.991-2.423-1.135-2.753.212a.21.21,0,0,0-.03.048c-1.506,4.189.275,9.242,2.905,12.615a17.753,17.753,0,0,0,1.4,1.588A16.154,16.154,0,0,0,356.072,1117.409Zm.275-1.636-.145-.048a.242.242,0,0,0,0-.052Zm-10.827-10.99c-.056-.623.13-1.087.709-1.176,1.236-.486,2.523,2.341,2.831,3.057s1.725,4.211-.111,4.222c-.853,0-1.243-1.15-1.577-1.74-.219-.371-.434-.783-.642-1.176a5.107,5.107,0,0,1-1.258-2.53l-.145-.312a.234.234,0,0,1,.193-.345Z" transform="translate(-323.269 -1059.676)"/><path class="s" d="M336.741,1115.611a15.653,15.653,0,0,1-2.5-5.087,29.321,29.321,0,0,1-.523-4.927,3.356,3.356,0,0,0-.059-.468c-.022-.156-.182-.119-.23-.03-.019.03-.033.063-.048.093a1.855,1.855,0,0,0-2.838-.4.323.323,0,0,0-.085.371,7.678,7.678,0,0,0-.675,4,13.454,13.454,0,0,0,1.046,4.846c1.02,2.438,3.369,6.037,6.174,6.626a.316.316,0,0,0,.315-.1,14.946,14.946,0,0,0,1.484,1.54,3.373,3.373,0,0,0,1.722,1.087,1.206,1.206,0,0,0,1.221-.6,1.184,1.184,0,0,0,.134-.512,23.869,23.869,0,0,0,3.128,1.833.468.468,0,1,0,.471-.809l-.349-.252C342.1,1120.616,339.015,1118.717,336.741,1115.611Zm2.041,3.833c.078-.052.178,0,.263,0s.085.13.152.13h0v-.041h.048a.46.46,0,0,1,.122.905.653.653,0,0,1-.712-.293.493.493,0,0,1,.126-.7Zm.905.913Zm-7.721-13.8c.056-.33.579-.308.649,0a32.594,32.594,0,0,0,1.625,6.374,16.867,16.867,0,0,0,3.825,5.361c.5.475-.256,1.235-.742.742C334.181,1116.082,331.239,1111.044,331.966,1106.554Z" transform="translate(-314.542 -1063.803)"/><path class="s" d="M357.778,1095.41a8.339,8.339,0,0,0,.3,4.731c.408,1.291,1.05,3.061,2.271,3.773a.371.371,0,0,0,.527-.4c-.371-1.284-1.343-2.345-1.759-3.655a21.465,21.465,0,0,1-.634-4.349.371.371,0,0,0-.7-.1Z" transform="translate(-332.018 -1058.075)"/><path class="s" d="M367.782,1122.1a.46.46,0,0,0,.623-.623,2.227,2.227,0,0,0-.768-.742.434.434,0,0,0-.586.59A2.345,2.345,0,0,0,367.782,1122.1Z" transform="translate(-337.958 -1074.104)"/><path class="s" d="M339.83,1153.113c.1.074.2.145.3.208-.052-.1-.115-.2-.182-.3A.744.744,0,0,1,339.83,1153.113Z" transform="translate(-320.87 -1094.444)"/><path class="s" d="M328.745,1126.661a1.729,1.729,0,0,0,.557-.026,1.855,1.855,0,0,0,1.31-1.258,2.244,2.244,0,0,0-.308-1.989,4.71,4.71,0,0,0-.631-.779c-1.072-1.065-2.278-1.929-3.269-3.087-.267-.315-.523-.634-.768-.968.226.334.4.6.49.742.471.638,2.063,2.081,1.67,2.968-.323.742-1.135.371-1.633.074a11.194,11.194,0,0,1-4.5-5.116c-.108-.263.137-.43.371-.408h0a.445.445,0,0,1,.3-.442c.7-1,1.914.278,2.79,1.462a20.228,20.228,0,0,1-1.428-2.471,19.393,19.393,0,0,1-1.966-9.276,8.033,8.033,0,0,0,.033-2.46,1.547,1.547,0,0,0-.479-.772,1.18,1.18,0,0,0-1.447-.134.193.193,0,0,0-.163.1l-.033.074a1.652,1.652,0,0,0-.119.152.33.33,0,0,0-.041.208c-1.762,4.185-1.113,9.528.612,13.591a21.767,21.767,0,0,0,4.571,6.808,13.635,13.635,0,0,0,3.61,2.6.568.568,0,0,0,.471.408Zm-7.421-12.14a.445.445,0,0,1-.634,0,1,1,0,0,1-.293-.742.942.942,0,0,1,.1-.4.627.627,0,0,1,.286-.26.319.319,0,0,1,.438.156.247.247,0,0,1,.071.052.857.857,0,0,1,.045,1.195Z" transform="translate(-307.415 -1062.69)"/><path class="s" d="M318.219,1136.922a11.85,11.85,0,0,0-1.428-2.338,17.646,17.646,0,0,1-1.44-2.861,31.354,31.354,0,0,1-1.506-5.784.189.189,0,0,0-.234-.16.26.26,0,0,0-.215.223,13.5,13.5,0,0,0,1.091,6.419c.664,1.6,1.658,4,3.258,4.864a.371.371,0,0,0,.371-.045.286.286,0,0,0,.1-.319Z" transform="translate(-304.22 -1077.307)"/><path class="t" d="M340.825,1122.448c.5.475,1.262-.286.742-.742a16.866,16.866,0,0,1-3.825-5.358c-.931-2.081-1.113-4.185-1.625-6.374-.07-.308-.594-.33-.649,0C334.755,1114.46,337.7,1119.5,340.825,1122.448Z" transform="translate(-318.059 -1067.219)"/><path class="t" d="M354.266,1146.069a.46.46,0,0,0,.334-.508.467.467,0,0,0-.456-.4h-.03s0,.033-.019.033,0,.041,0,.041h0c-.067,0-.045-.1-.152-.13a.311.311,0,0,0-.263,0,.482.482,0,0,0-.13.683.649.649,0,0,0,.716.286Z" transform="translate(-329.444 -1089.444)"/><path class="t" d="M348.277,1115.288a5.183,5.183,0,0,0,1.258,2.53c.208.393.423.787.642,1.176.334.59.724,1.744,1.577,1.74,1.837,0,.43-3.491.111-4.222s-1.6-3.543-2.831-3.057c-.579.089-.764.553-.709,1.176a.234.234,0,0,0-.193.345Z" transform="translate(-326.074 -1069.523)"/><path class="t" d="M327.749,1139.188a.445.445,0,0,0-.3.442h0c-.226-.022-.471.145-.371.408a11.193,11.193,0,0,0,4.5,5.116c.5.308,1.31.657,1.633-.074.393-.9-1.2-2.341-1.67-2.968-.093-.126-.263-.4-.49-.742-.152-.223-.327-.475-.519-.742C329.663,1139.466,328.454,1138.186,327.749,1139.188Zm4.048,5a.744.744,0,0,0,.122-.093c.067.1.13.2.182.3-.1-.063-.2-.134-.3-.208Z" transform="translate(-312.837 -1085.517)"/><path class="t" d="M324.6,1131.166a.319.319,0,0,0-.438-.156.627.627,0,0,0-.286.26.943.943,0,0,0-.1.4,1,1,0,0,0,.293.742.445.445,0,0,0,.634,0,.857.857,0,0,0-.033-1.191A.247.247,0,0,0,324.6,1131.166Z" transform="translate(-310.774 -1080.578)"/><path class="t" d="M367.022,1165.768a.471.471,0,0,0,.2.312c.371.245.742.523,1.113.742a.46.46,0,0,0,.6-.16.493.493,0,0,0,.152-.56.256.256,0,0,0,0-.093.423.423,0,0,0-.033-.1,1.482,1.482,0,0,0-.345-.412.98.98,0,0,0-.954-.445h-.03a.453.453,0,0,0-.516.23.308.308,0,0,0-.171.493Z" transform="translate(-337.945 -1102.005)"/><path class="t" d="M340.3,1093.4a.415.415,0,0,1-.052.033.371.371,0,0,0-.234.13,1.671,1.671,0,0,0-.215.349,1.3,1.3,0,0,0-.045,1.065.456.456,0,0,0,.89.122c.108-.393.219-.787.33-1.18a.467.467,0,0,0-.675-.519Z" transform="translate(-320.763 -1056.908)"/><path class="b" d="M302.344,1076.025c1.358-.79,2.356-2.226,3.569-3.221a21.8,21.8,0,0,1,4.612-2.916,22.44,22.44,0,0,1,4.957-1.681c1.785-.371,3.566-.263,5.346-.516.542-.078.508-.953,0-1.057a13.854,13.854,0,0,0-5.261.327,22.48,22.48,0,0,0-5.447,1.829,23.332,23.332,0,0,0-4.634,3.005c-1.25,1.039-2.92,2.434-3.358,4.081a.148.148,0,0,0,.215.148Z" transform="translate(-297.157 -1040.018)"/><path class="b" d="M357.776,1067.7c.208.033.412.033.62.048s.371.052.583.063c.7.041.7-1.135,0-1.113-.2,0-.39.045-.583.063a4.533,4.533,0,0,0-.62.048.456.456,0,0,0,0,.891Z" transform="translate(-331.934 -1040.151)"/><path class="j" d="M336.737,1096.411c-.323-.85-1.7-.486-1.377.371a22.325,22.325,0,0,1,.568,13.754,22.773,22.773,0,0,1-2.883,6.385,21.943,21.943,0,0,1-6.864,6.678,24.011,24.011,0,0,1-28.165-2.4l-.056-.048a26.426,26.426,0,0,1-5.591-6.76,34.668,34.668,0,0,1-3.306-9.038.167.167,0,0,0-.263-.085.152.152,0,0,0-.07.134,19.863,19.863,0,0,0,.33,3.462,20.578,20.578,0,0,0,.742,2.8c2.872,8.534,11.168,15.212,19.961,16.663a24.876,24.876,0,0,0,25.475-12.006q.49-.868.9-1.792a24.354,24.354,0,0,0,1.755-5.8,23.843,23.843,0,0,0,0-8.2A22.512,22.512,0,0,0,336.737,1096.411Z" transform="translate(-288.73 -1058.534)"/><path class="j" d="M410.125,1089.178c.045.056.089.111.137.163l.037.041c-.048-.067-.045-.059.019,0a1.222,1.222,0,0,0,.219.2.634.634,0,0,0,.935-.716.795.795,0,0,0-.486-.468c.056.022.059.03,0,0l-.219-.1c-.089-.037-.178-.078-.271-.111a.664.664,0,0,0-.39,0,.4.4,0,0,0-.3.371.694.694,0,0,0,.115.371C409.992,1089.011,410.059,1089.093,410.125,1089.178Z" transform="translate(-364.886 -1053.643)"/><path class="q" d="M403.669,1108.711a10.1,10.1,0,0,1,.471,3.094c-.033.857,1.317.861,1.339,0a4.211,4.211,0,0,0-1.321-3.376.3.3,0,0,0-.49.282Z" transform="translate(-361.019 -1066.349)"/><path class="b" d="M392.561,1187.2a2.652,2.652,0,0,0-.46,1.113,6.308,6.308,0,0,0-.931,3.71.6.6,0,0,0,.9.52,5.353,5.353,0,0,0,2.252-2.423,3.218,3.218,0,0,0,.252-2.757,1.2,1.2,0,0,0-2.015-.163Z" transform="translate(-353.154 -1115.646)"/><path class="b" d="M385.717,1198.491a.33.33,0,0,0-.519.163h0a.691.691,0,0,0-.148.371c0,.108-.03.219-.041.33a3.391,3.391,0,0,0-.048.43.557.557,0,0,0,1.091.148v-.07a.586.586,0,0,0,.1-.323v-.516A.564.564,0,0,0,385.717,1198.491Z" transform="translate(-349.256 -1123)"/></g><path class="b" d="M427.294,173.611c-4.345,3.643-11.186,5.565-17.409,6.942a206.645,206.645,0,0,1-25.4,3.643c-14.841,1.377-29.838,1.992-44.738,2.994q-38.587,2.6-77.337,3.172c-1.276.019-1.9-.69-1.881-1.4a1.039,1.039,0,0,1,.067-1.057l-.456-.108c-1.113-.256-1.9-1.28-1.161-2.052a4.9,4.9,0,0,0,1.484-3.488,1.146,1.146,0,0,1,.044-.278H259.49a1.764,1.764,0,0,1-1.811-1c-1.224-.338-2-1.454-.742-2.226a23.767,23.767,0,0,0,5.257-4.723,58.216,58.216,0,0,0-8.552-.434c-1.184.1-2.315-.976-1.877-1.766a11.172,11.172,0,0,1,2.861-3.105h-.5a4.975,4.975,0,0,1-3.031-.991c-.516-.438-.857-1.172-.3-1.7,1.009-.95,2.6-1.484,3.87-2.226-.66-.063-1.373-.041-2.03-.093a7.165,7.165,0,0,1-3.287-1.005,1.139,1.139,0,0,1,0-1.974,4.579,4.579,0,0,1,.467-.23c-1.428-.07-2.857-.182-4.278-.371-.976-.13-1.4-.627-1.406-1.161-.2-.523.033-1.091.939-1.4,15.668-5.246,33.214-6.623,50.252-7.636,10.834-.649,21.638-1.232,32.424-2.2,12.073-1.113,24.117-2.3,36.257-3.117a338.039,338.039,0,0,1,36.591-.783c3.124.13,6.248.3,9.361.571,1.684.145,5.881-.063,6.274,1.577a4.406,4.406,0,0,1-.156,2.067.942.942,0,0,0,.022.438,4.193,4.193,0,0,0,.742.193,14.906,14.906,0,0,1,5.194,1.569,1.2,1.2,0,0,1-.4,2.2,29.431,29.431,0,0,0-2.872,1.091c.631.041,1.261.067,1.892.074a1.969,1.969,0,0,1,1.877,1.028c.323.824-.134,1.525-.831,2.163a10.832,10.832,0,0,1-.916.742l1.05.178a10.036,10.036,0,0,1,2.723.672c.976.519,1.369,1.518.393,2.2a21.626,21.626,0,0,1-2.2,1.3c.664.041,1.328.074,1.992.082,1.588.022,2.282,1.154,1.685,2.1-.82,1.3-1.774,2.824-1.484,4.241a9,9,0,0,1,.185,2.69.941.941,0,0,1,.249.022,4.37,4.37,0,0,1,1.51.352C428.018,171.926,428.129,172.913,427.294,173.611Z" transform="translate(-185.133 -142.591)"/><path class="u" d="M353.113,169.978s-3.911,12.27-4.293,13.171-5.628-.835-6.307-1.132-.994-23.9-.994-23.9-.434.059-.942,1.139-2.579,25.163-2.72,26.762-9.691-2.078-9.691-2.078-.486-21.149-.809-20.937-7.988,22.128-7.988,22.128l-3.091-1.907-1.829-20.47-2.048-4.233,7.539.62-.416,19.683,6.419-24.287s7.651.742,8.163,1.484,1.573,25.686,1.573,25.686l3.948-23.831,2.905-2.746s4.538,1.785,4.693,2.653.289,23.467.289,23.467L352,167.4Z" transform="translate(-228.114 -149.448)"/><path class="u" d="M431.68,180.968s-3.109,9.383-7.528,13.357c0,0-3.792-.137-4.89-1.484-.742-.9-1.877-13.572.649-19.742,0,0,4.968-.575,5.651.634s-.111,11.465-.66,12.411a7.907,7.907,0,0,1-2.909,2.171,9.96,9.96,0,0,0,.868,4.241s5.68-8.8,6.166-14.1Zm-8.756-5.005c-.26-.39-.438.568-.564,1.25a88.915,88.915,0,0,0-.427,9.253,14.288,14.288,0,0,0,1.484-1.647,66.064,66.064,0,0,0-.549-8.9Z" transform="translate(-294.756 -161.034)"/><path class="u" d="M464.238,180.847c.275.119.887.686.9.957.037.571-2.7,12.637-3.094,12.93-1.132.846-4.931-1.083-4.931-1.083s-.742-4.89-1.243-9.25c-.931,3-2.712,8.14-3.25,8.163-1.414.085-5.565-.471-5.936-1.662s.427-10.637.571-11.086c.223-.742,2.256-1.221,3.339-1.217,1.013-.063,3.655,1.195,4.823,2.137-.141-1.751-.186-3,0-3.146.39-.293,4.256-.631,4.493-.07.549,1.284.557,15.171.742,14.518s3.261-11.32,3.54-11.2Zm-12.474,8.808c.182-.371,2.263-5.565,3.254-7.6-1.351-1.065-3.443-2.694-3.6-2.449.163,2.66-.512,10.389-.338,10.463.527.3.512.07.716-.416Z" transform="translate(-312.514 -163.711)"/><path class="u" d="M504.606,163.185s-3.907,14.025-4.7,14.21c-1.666.4-3.929.371-4.846-.211-.315-.215-.742-1.577-1.172-3.677-.237-1.135-.456-2.508-.686-4.048-.341-6.678.059-19.943,2.178-22.369a2.115,2.115,0,0,1,1.21-.616c1.373-.252,3.228.241,3.387.672.2.493.883,14.949-1.221,17.579a5.82,5.82,0,0,1-2.044.8,57.183,57.183,0,0,0,.742,8.675,2.05,2.05,0,0,0,.13.464c.074.13.23-.082.442-.5,1.172-2.367,4.341-12.986,4.341-12.986Zm-8.211.508c.839-1.2,1.785-13.32,1.41-13.4C497.8,150.284,496.855,152.54,496.4,163.693Z" transform="translate(-341.763 -144.331)"/><path class="u" d="M545.854,143.568c3.365,9.153,1.525,18.83-2.015,20.637-3.08,1.573-5.194-2.89-5.194-2.89s8.207.475,4.942-16.392c-.052-.267-3.744,5.1-6.007,15.038l-.312,13.669-3.339-2.093-2-22.262-2.226-4.593,8.163.646-.137,6.563c1.02-3.777,3.836-9.086,4.786-9.584,1.08-.575,3.317,1.213,3.317,1.213Z" transform="translate(-364.79 -141.682)"/><path class="u" d="M596.066,157.58s-3.9,14.029-4.7,14.21c-1.666.408-3.929.371-4.846-.208-.315-.219-.742-1.577-1.172-3.681-.237-1.135-.456-2.508-.686-4.048-.341-6.678.059-19.943,2.178-22.369a2.111,2.111,0,0,1,1.221-.6c1.369-.252,3.224.241,3.384.672.2.493.883,14.952-1.217,17.579a5.859,5.859,0,0,1-2.048.8,57.2,57.2,0,0,0,.742,8.675,2.169,2.169,0,0,0,.13.467c.074.13.23-.085.442-.5,1.172-2.371,4.341-12.986,4.341-12.986Zm-8.215.5c.839-1.2,1.785-13.324,1.41-13.4,0,.007-.946,2.26-1.41,13.409Z" transform="translate(-399.289 -140.815)"/><path class="u" d="M625.834,170.937c.278.119.89.69.905.957.037.571-2.7,12.637-3.094,12.93-1.132.846-4.931-1.083-4.931-1.083s-.742-4.886-1.243-9.25c-.931,3-2.712,8.14-3.25,8.163-1.414.089-5.565-.467-5.936-1.662s.427-10.637.568-11.086c.226-.742,2.26-1.221,3.339-1.217,1.009-.063,3.655,1.195,4.823,2.137-.141-1.751-.185-3,0-3.146.371-.293,4.256-.631,4.493-.07.549,1.284.557,15.171.742,14.518s3.261-11.316,3.536-11.2Zm-12.47,8.808c.182-.371,2.263-5.565,3.254-7.6-1.351-1.065-3.443-2.694-3.6-2.449.163,2.66-.512,10.389-.338,10.463.527.308.512.07.716-.416Z" transform="translate(-414.156 -157.478)"/><path class="u" d="M669.8,168.834s.887.686.9.957c.037.571-2.89,20.035-4.308,20.1s-5.588-.742-5.988-2.337,1.221-20.859.764-20.592-2.835,6.155-3.447,7.714a32.758,32.758,0,0,1,.108,5.6c-.371.46-2.831.712-2.968.419s-1.592-13.828-1.313-14.247a12.9,12.9,0,0,1,3.436-.212c.07.1.341,2.849.564,5.914.942-2.256,2.968-6.133,3.551-6.571.371-.3,4.508-.312,4.953.876.486,1.291-1.384,19.891-1.169,20.035.531.4,4.994-17.713,4.994-17.713Z" transform="translate(-442.666 -156.288)"/><g transform="translate(227.569 157.198)"><path class="v" d="M910.552,672.772h0a8.422,8.422,0,0,0,8.422-8.426V641.48H902.13v22.866A8.422,8.422,0,0,0,910.552,672.772Z" transform="translate(-826.608 -612.917)"/><path class="w" d="M910.793,651.64s-.8,10.853-8.663,13.7v-8l9.086-5.346" transform="translate(-826.608 -619.308)"/><path class="v" d="M882.149,617.7h0a11.863,11.863,0,0,0,11.7-12.025V583.929l-10.786-1.139c-4.015,0-9.4,7.105-9.4,11.231v14.938A8.6,8.6,0,0,0,882.149,617.7Z" transform="translate(-808.701 -576.003)"/><path class="v" d="M868.748,621.8l-3.84,6.541a.994.994,0,0,0,.816,1.562h5.784Z" transform="translate(-803.085 -600.539)"/><path class="w" d="M884.968,577.446c8.656-3.2,12.648-3.488,12.648-3.488,2.516-.9,5.662-.041,8.014.935a13.464,13.464,0,0,1,7,6.244c4.311,8.641-4.081,17.472-4.081,17.472l-1.02,9.632c-7.892,0-11.632-8.478-11.632-8.478l.482-14.711-.063-.056-1.981-4.775-4.5-.9S876.316,580.637,884.968,577.446Z" transform="translate(-813.995 -570.21)"/><path class="w" d="M865.231,579.154c4.99,2.226,13.149-1.729,15.954-3.339.048,4.7-1.725,6.5,1.577,12.277,0,0,8.04-11.324,7.383-13.212.037-.026,1.072-.041,1.072-.041s-1.206-7.261-7.242-9.413a2.968,2.968,0,0,0-3.339.79,1.569,1.569,0,0,0-.4,1.072c-3.577-2.174-13.491-4.352-16.815-1.239C858.7,570.461,861.168,577.67,865.231,579.154Z" transform="translate(-800.643 -564.497)"/><circle class="w" cx="1.202" cy="1.202" r="1.202" transform="translate(66.855 20.92)"/><path class="w" d="M876.424,612.7l-.044-2.345,4.352.078a2.416,2.416,0,0,1,1.484.56l1.729,1.992-2.879-.427Z" transform="translate(-810.412 -593.344)"/><path class="x" d="M877.467,649.31a5.779,5.779,0,0,1-3.317.7" transform="translate(-809.009 -617.842)"/><path class="v" d="M918.826,627.814c3.306,2.029,9.023-7.2,5.8-9.383s-5.243,1.855-5.243,1.855l-.976,3.143.315,3.4-.186.98Z" transform="translate(-836.848 -598.012)"/><path class="y" d="M925.083,626.891s-2.148-.664-3.673,2.271" transform="translate(-838.734 -603.701)"/><path class="y" d="M924.22,629.27s2.338,1.158.794,2.9" transform="translate(-840.502 -605.238)"/><path class="z" d="M880.6,998.44a10.018,10.018,0,0,1-12.637,8.125,10.24,10.24,0,0,1-7.216-10.456l3.836-53.936a12.166,12.166,0,0,1,14.648-11.283h0a12.166,12.166,0,0,1,9.535,13.75Z" transform="translate(-800.57 -794.785)"/><path class="b" d="M853.12,1286.2l2.768-26.2,10.4.037-2.749,26.172Z" transform="translate(-795.782 -1001.95)"/><path class="w" d="M830.9,1314.328l1.974,8.741H798.13v-.26a5.22,5.22,0,0,1,2.968-4.716l16.129-6.415a1.543,1.543,0,0,1,1.77.2c2.081,2.2,4.371,5.781,10.73,1.892a.8.8,0,0,1,1.169.553Z" transform="translate(-761.195 -1034.335)"/><rect class="b" width="34.739" height="2.293" transform="translate(71.674 291.031) rotate(180)"/><line class="aa" x1="3.039" y1="6.393" transform="translate(54.763 283.447)"/><line class="aa" x1="2.267" y1="4.764" transform="translate(50.923 284.92)"/><path class="z" d="M874.021,1099.677l-8.207,63.334H850.68l3.71-65.171a9.862,9.862,0,0,1,11.873-9.235h0a9.862,9.862,0,0,1,7.758,11.072Z" transform="translate(-794.247 -894.016)"/><path class="ab" d="M871.11,917.982l2.341-25.812h29.7l-3.336,24.736Z" transform="translate(-807.097 -770.595)"/><path class="w" d="M907.124,892.17s7.139,7.962-.1,24.736l-24.365.26-5.239-25Z" transform="translate(-811.066 -770.595)"/><path class="w" d="M918.658,989.9a10,10,0,0,1-10.7,10.541,10.236,10.236,0,0,1-9.205-8.752l-7.45-56.3A12.525,12.525,0,0,1,903.58,921.15h0c7.888,0,11.695,7.966,12.047,14.422Z" transform="translate(-819.706 -788.822)"/><path class="b" d="M940.976,1286.2,938.69,1260l10.4.037,2.3,26.172Z" transform="translate(-849.603 -1001.95)"/><path class="w" d="M922.625,1314.33l1.974,8.741H889.86v-.26a5.22,5.22,0,0,1,2.968-4.716l16.129-6.415a1.547,1.547,0,0,1,1.77.2c2.081,2.2,4.371,5.781,10.73,1.892a.8.8,0,0,1,1.169.553Z" transform="translate(-818.89 -1034.337)"/><rect class="b" width="34.739" height="2.293" transform="translate(105.709 291.031) rotate(180)"/><line class="aa" x1="3.039" y1="6.393" transform="translate(88.797 283.447)"/><line class="aa" x1="2.267" y1="4.764" transform="translate(84.958 284.92)"/><path class="w" d="M932.338,1096.235l4.081,65.9H920.283l-7.5-63.676A9.866,9.866,0,0,1,922.494,1087h0a9.862,9.862,0,0,1,9.843,9.236Z" transform="translate(-833.226 -893.137)"/><path class="u" d="M899.069,697.849s1.061-.456,2.638.7c10.018,7.306,14.841,20.139,12.541,32.628l-7.094,38.717H877.42l1.02-33.971s-2.048-24.258,9.8-38.071Z" transform="translate(-811.066 -648.316)"/><g class="ac" transform="translate(66.354 49.444)"><line class="ad" x1="58.151" transform="translate(-13.324 66.091)"/><line class="ad" x1="58.151" transform="translate(-13.324 57.691)"/><line class="ad" x1="58.151" transform="translate(-13.324 49.287)"/><line class="ad" x1="58.151" transform="translate(-13.324 40.887)"/><line class="ad" x1="58.151" transform="translate(-13.324 32.483)"/><line class="ad" x1="58.151" transform="translate(-13.324 24.083)"/><line class="ad" x1="58.151" transform="translate(-13.324 15.683)"/><line class="ad" x1="58.151" transform="translate(-13.324 7.28)"/></g><path class="v" d="M894.549,700.9l3.788-7.584,4.987-.935,1.518,1.039,6.519.122,4.9,4.968s-1.547,5.3-15.683,6.189h-.23C892.968,704.7,894.549,700.9,894.549,700.9Z" transform="translate(-821.75 -644.932)"/><path class="ae" d="M873,618.634c0,2.875,2.007,5.194,4.482,5.194s4.482-2.334,4.482-5.194-2.007-5.194-4.482-5.194S873,615.759,873,618.634Z" transform="translate(-808.286 -595.281)"/><path class="af" d="M873,618.634c0,2.875,2.007,5.194,4.482,5.194s4.482-2.334,4.482-5.194-2.007-5.194-4.482-5.194S873,615.759,873,618.634Z" transform="translate(-808.286 -595.281)"/><line class="ag" x2="8.445" transform="translate(73.663 23.353)"/><path class="u" d="M714.7,717.717,706,739.823a.809.809,0,0,1-1.046.464h0a.8.8,0,0,1-.46-1.043l8.686-22.121a.813.813,0,0,1,1.046-.464h0a.809.809,0,0,1,.475,1.057Z" transform="translate(-702.266 -660.169)"/><path class="v" d="M715.8,730.531a5.376,5.376,0,0,1,.178,3.061h0a3.109,3.109,0,0,1,.371,4.508l-.846.939a3.109,3.109,0,0,1-4.263.345l-.074-.059a27.62,27.62,0,0,1-8.3-6c-5.076-5.361-4.946-10.218-3.165-11.669,1.684-1.369,7.984,4.638,10.352,6.842l-.95-3.387a1.02,1.02,0,0,1,1.7-1l2.712,2.668A8.752,8.752,0,0,1,715.8,730.531Z" transform="translate(-698.581 -663.222)"/><path class="v" d="M737.459,754.16l36.468,25.115a6.434,6.434,0,0,1,1.15,9.625h0a6.434,6.434,0,0,1-9.023.527L732.71,759.952Z" transform="translate(-720.047 -683.79)"/><path class="v" d="M864.967,728.076c-8.589,8.163-28.406,27.226-37.136,35.619a6.4,6.4,0,0,1-8.686.171h0a6.4,6.4,0,0,1-.523-9.046l34.661-38.791a8.393,8.393,0,0,1,12.211.445h0A8.381,8.381,0,0,1,864.967,728.076Z" transform="translate(-773.06 -658.284)"/><path class="u" d="M887.38,711.687c4.961-3.339,11.5-2.3,14.622,2.356a10.416,10.416,0,0,1-1.8,13.257h0l-15.1,15.438L871.53,727.656l13.424-13.743A11.688,11.688,0,0,1,887.38,711.687Z" transform="translate(-807.361 -655.846)"/><g class="ah" transform="translate(64.169 53.886)"><line class="ai" x1="34.275" y1="40.397" transform="translate(-4.671 -0.706)"/><line class="ai" x1="34.275" y1="40.397" transform="translate(1.607 -5.948)"/><line class="ai" x1="34.275" y1="40.397" transform="translate(7.884 -11.191)"/></g></g><path class="u" d="M435.272,439.954a.987.987,0,0,1,1.113.319,1.291,1.291,0,0,1,.289.672c.193,1.41.371,2.853.512,4.3.193,2.018.319,4.037.512,6.055.13,1.569.319,3.105.482,4.675.03.16.1.352.126.512a3.039,3.039,0,0,0,.256-.445c.419-1.54.865-3.046,1.284-4.582a1.065,1.065,0,0,1,1.057-.835,1.046,1.046,0,0,1,.991.865c.449,1.573.9,3.109,1.347,4.645a.471.471,0,0,0,.063.193.56.56,0,0,0,.13.16c.03-.063.1-.126.1-.223a.256.256,0,0,0,.03-.16l.675-6.345c.126-1.484.189-2.916.319-4.389.033-.545.13-1.087.193-1.6l.289-2.3a6.084,6.084,0,0,1,.093-.772,1.035,1.035,0,0,1,1.25-.768,1.013,1.013,0,0,1,.7,1.187c-.223,2.178-.545,4.322-.7,6.471-.1,1.825-.371,3.651-.545,5.447-.126,1.25-.189,2.5-.352,3.747-.16,1.377-.416,2.757-.638,4.133a.957.957,0,0,1-.8.865,1.013,1.013,0,0,1-1.091-.479,7.989,7.989,0,0,1-.638-1.41c-.419-1.25-.8-2.564-1.221-3.844a.423.423,0,0,0-.063-.193.178.178,0,1,0-.319,0c-.353,1.113-.675,2.226-1.057,3.362a13.107,13.107,0,0,1-.768,1.926,1.806,1.806,0,0,1-.608.575.954.954,0,0,1-1.347-.742c-.16-.638-.256-1.313-.352-1.952-.226-1.922-.416-3.848-.642-5.769-.1-1.113-.289-2.208-.371-3.339-.13-1.44-.226-2.883-.352-4.322-.033-.579-.13-1.113-.193-1.7-.13-.994-.256-2.018-.352-2.916A.961.961,0,0,1,435.272,439.954Z" transform="translate(-305.013 -328.926)"/><path class="u" d="M470.958,451.2c0-.516-.067-1.057-.033-1.6a7.229,7.229,0,0,0,.033-.864c0-2.052.063-4.1.063-6.185,0-.7.289-1.154,1.024-1.217.864-.063,1.729-.033,2.6-.033a10.9,10.9,0,0,1,1.087.13,1.017,1.017,0,0,1,.994,1.154c-.033.575-.512.9-1.187.831-.608-.03-1.217-.126-1.825-.126-.672-.033-.672,0-.7.672,0,1.506-.03,3.013-.1,4.549,0,.416-.03.835-.03,1.25,0,.575.063.642.608.642.416,0,.8-.033,1.217-.067a.994.994,0,0,1,1.087.742.965.965,0,0,1-.609,1.239,2.018,2.018,0,0,1-.768.1c-.371.033-.768,0-1.154,0-.286,0-.416.13-.416.449V454.3c.033,1.922.063,3.874.13,5.8,0,.772.063.835.864.7a6.12,6.12,0,0,1,1.057-.16.928.928,0,0,1,1.024.864.976.976,0,0,1-.864,1.091,9.251,9.251,0,0,1-2.66.193,1.406,1.406,0,0,1-1.343-1.187,21.147,21.147,0,0,1-.163-3.781c0-.991.033-1.985.033-2.968C470.917,453.65,471.021,452.433,470.958,451.2Z" transform="translate(-327.787 -329.806)"/><path class="u" d="M489.447,451.2c0-.516-.063-1.057-.03-1.6a8.133,8.133,0,0,0,.03-.864c0-2.052.063-4.1.063-6.185,0-.7.289-1.154,1.028-1.217.864-.063,1.729-.033,2.6-.033a10.84,10.84,0,0,1,1.091.13,1.013,1.013,0,0,1,.991,1.154c-.03.575-.512.9-1.184.831-.608-.03-1.217-.126-1.825-.126-.672-.033-.672,0-.7.672,0,1.506-.033,3.013-.1,4.549,0,.416-.033.835-.033,1.25,0,.575.067.642.609.642.419,0,.8-.033,1.221-.067a1,1,0,0,1,1.087.742.965.965,0,0,1-.6,1.239,2.018,2.018,0,0,1-.768.1c-.371.033-.768,0-1.154,0-.289,0-.416.13-.416.449V454.3c.03,1.922.063,3.874.126,5.8,0,.772.067.835.864.7a6.12,6.12,0,0,1,1.057-.16.931.931,0,0,1,1.028.864.976.976,0,0,1-.868,1.091,9.224,9.224,0,0,1-2.657.193,1.414,1.414,0,0,1-1.347-1.187,21.513,21.513,0,0,1-.16-3.781c0-.991.033-1.985.033-2.968C489.418,453.65,489.51,452.433,489.447,451.2Z" transform="translate(-339.423 -329.806)"/><path class="u" d="M507.93,448.551c-.033-1.952-.067-3.907-.13-5.862V441.2a1,1,0,0,1,.928-.961,1.02,1.02,0,0,1,1.028.831c.03.13.03.289.063.419.033,1.154.063,2.3.1,3.491a.515.515,0,0,0,.033.223c0,.067.063.1.1.16.03-.03.093-.063.126-.093a1.51,1.51,0,0,1,.13-.256c.371-.931.768-1.892,1.184-2.82.223-.545.449-1.091.7-1.636a1.009,1.009,0,0,1,1.25-.545,1,1,0,0,1,.575,1.284,2.126,2.126,0,0,1-.16.416c-.545,1.313-1.091,2.66-1.666,3.94-.416.864-.865,1.7-1.313,2.53a.946.946,0,0,0-.1.961c.226.545.371,1.091.609,1.636a27.882,27.882,0,0,1,1.54,4.8,12.416,12.416,0,0,0,.608,2.148c.319.991.575,1.985.865,2.946a.994.994,0,1,1-1.892.608c-.159-.479-.286-.994-.445-1.506-.226-.672-.449-1.376-.675-2.048-.1-.352-.223-.675-.289-1.028a18.014,18.014,0,0,0-.928-3.428.178.178,0,1,0-.256.033c-.033,2.081-.063,4.2-.1,6.278,0,.419.033.835,0,1.221a1.856,1.856,0,0,1-.223.7.953.953,0,0,1-1.7-.371,3.194,3.194,0,0,1-.033-.579c0-3.042,0-6.055.033-9.1v-.352h-.063C507.874,450.283,507.93,449.415,507.93,448.551Z" transform="translate(-351.016 -328.97)"/><path class="u" d="M548.659,442.039a1.2,1.2,0,0,0-.1-.319c-.093.063-.16.1-.256.16a11.821,11.821,0,0,1-.961.865,1.061,1.061,0,0,1-1.506-.03,1.046,1.046,0,0,1,.193-1.484c.772-.742,1.54-1.506,2.274-2.226a3.908,3.908,0,0,1,.419-.319,1.068,1.068,0,0,1,1.217-.13,1.154,1.154,0,0,1,.672,1.091c0,2.226.063,4.486.063,6.727-.03,1.762-.16,3.491-.126,5.254,0,2.53.126,5.094.193,7.625a1.08,1.08,0,0,1-.961,1.221c-.545.063-.965-.352-1.057-.994a2.639,2.639,0,0,1-.033-.512c-.063-2.371-.13-4.742-.159-7.113-.033-1.113,0-2.245,0-3.339h.126Z" transform="translate(-374.8 -328.002)"/><rect class="aj" width="164.41" height="3.035" transform="translate(79.054 150.665)"/><rect class="aj" width="164.41" height="3.035" transform="translate(79.054 164.33)"/><rect class="aj" width="164.41" height="3.035" transform="translate(79.054 177.991)"/><rect class="aj" width="164.41" height="3.035" transform="translate(79.054 191.656)"/><rect class="aj" width="164.41" height="3.035" transform="translate(79.054 205.317)"/><rect class="ak" width="26.87" height="26.87" rx="12.56" transform="translate(140.99 221.409)"/><path d="M517.179,708.877c-1.425-.768-3.009.712-3.94,1.588-2.137,2.078-3.94,4.486-5.966,6.679-2.245,2.408-4.326,4.823-6.623,7.168a19.63,19.63,0,0,0-3.614,4.382,71.942,71.942,0,0,0-5.859-5.7c-1.588-1.2-4.215-2.078-4.159.82.111,3.777,3.447,7.829,5.91,10.389a6.252,6.252,0,0,0,4,2.3c1.918.111,3.888-2.189,5.039-3.447,2.026-2.189,3.666-4.653,5.528-6.9,2.408-2.968,4.872-5.859,7.224-8.868C516.192,715.444,520.845,710.847,517.179,708.877ZM489.427,723.6a.407.407,0,0,0-.219.056,2.615,2.615,0,0,1-.6-.219h0C488.77,723.329,489.044,723.381,489.427,723.6Z" transform="translate(-337.944 -497.976)"/><path class="u" d="M435.272,872.024a.987.987,0,0,1,1.113.319,1.291,1.291,0,0,1,.289.672c.193,1.41.371,2.853.512,4.293.193,2.018.319,4.037.512,6.055.13,1.573.319,3.109.482,4.679.03.16.1.371.126.512a2.888,2.888,0,0,0,.256-.449c.419-1.536.864-3.042,1.284-4.578a1.065,1.065,0,0,1,1.057-.835,1.046,1.046,0,0,1,.991.865c.449,1.569.9,3.109,1.347,4.645a.471.471,0,0,0,.063.193.617.617,0,0,0,.13.16c.03-.063.1-.126.1-.223a.256.256,0,0,0,.03-.16l.675-6.345c.126-1.484.189-2.916.319-4.389.033-.545.13-1.091.193-1.6l.289-2.3a5.994,5.994,0,0,1,.093-.772,1.035,1.035,0,0,1,1.25-.768,1.013,1.013,0,0,1,.7,1.187c-.223,2.178-.545,4.322-.7,6.471-.1,1.826-.371,3.651-.545,5.447-.126,1.25-.189,2.5-.352,3.747-.16,1.377-.416,2.757-.638,4.133a.957.957,0,0,1-.8.865,1.013,1.013,0,0,1-1.091-.479,7.993,7.993,0,0,1-.638-1.41c-.419-1.25-.8-2.564-1.221-3.848a.423.423,0,0,0-.063-.189.178.178,0,1,0-.319,0c-.353,1.113-.675,2.226-1.057,3.361a12.892,12.892,0,0,1-.768,1.922,1.781,1.781,0,0,1-.608.579.954.954,0,0,1-1.347-.742c-.16-.638-.256-1.313-.353-1.955-.226-1.922-.416-3.844-.642-5.766-.1-1.113-.289-2.226-.371-3.339-.13-1.44-.226-2.883-.352-4.326-.033-.575-.13-1.113-.193-1.7-.13-.994-.256-2.018-.352-2.916a.961.961,0,0,1,.6-1.013Z" transform="translate(-305.013 -600.687)"/><path class="u" d="M470.958,883.307c0-.512-.067-1.057-.033-1.6a7.229,7.229,0,0,0,.033-.865c0-2.052.063-4.1.063-6.185,0-.705.289-1.154,1.024-1.217.864-.063,1.729-.033,2.6-.033q.546.038,1.087.13a1.017,1.017,0,0,1,.994,1.154c-.033.575-.512.894-1.187.831-.608-.03-1.217-.126-1.825-.126-.672-.033-.672,0-.7.672,0,1.506-.03,3.013-.1,4.549,0,.416-.03.835-.03,1.25,0,.575.063.642.608.642.416,0,.8-.033,1.217-.067a.994.994,0,0,1,1.087.742.965.965,0,0,1-.609,1.2,2.02,2.02,0,0,1-.768.1c-.371.033-.768,0-1.154,0-.286,0-.416.126-.416.449v1.44c.033,1.922.063,3.877.13,5.8,0,.772.063.835.864.7a6.126,6.126,0,0,1,1.057-.16.928.928,0,0,1,1.024.865.976.976,0,0,1-.864,1.091,9.249,9.249,0,0,1-2.66.193,1.406,1.406,0,0,1-1.343-1.187,21.15,21.15,0,0,1-.163-3.781c0-.991.033-1.985.033-2.968C470.917,885.745,471.021,884.528,470.958,883.307Z" transform="translate(-327.787 -601.592)"/><path class="u" d="M489.447,883.307c0-.512-.063-1.057-.03-1.6a8.134,8.134,0,0,0,.03-.865c0-2.052.063-4.1.063-6.185,0-.705.289-1.154,1.028-1.217.864-.063,1.729-.033,2.6-.033a10.84,10.84,0,0,1,1.091.13,1.013,1.013,0,0,1,.991,1.154c-.03.575-.512.894-1.184.831-.608-.03-1.217-.126-1.825-.126-.672-.033-.672,0-.7.672,0,1.506-.033,3.013-.1,4.549,0,.416-.033.835-.033,1.25,0,.575.067.642.609.642.419,0,.8-.033,1.221-.067a1,1,0,0,1,1.087.742.965.965,0,0,1-.6,1.2,2.02,2.02,0,0,1-.768.1c-.371.033-.768,0-1.154,0-.289,0-.416.126-.416.449v1.44c.03,1.922.063,3.877.126,5.8,0,.772.067.835.864.7a6.126,6.126,0,0,1,1.057-.16.931.931,0,0,1,1.028.865.976.976,0,0,1-.868,1.091,9.225,9.225,0,0,1-2.657.193,1.414,1.414,0,0,1-1.347-1.187,21.514,21.514,0,0,1-.16-3.781c0-.991.033-1.985.033-2.968C489.418,885.745,489.51,884.528,489.447,883.307Z" transform="translate(-339.423 -601.592)"/><path class="u" d="M507.93,880.621c-.033-1.952-.067-3.907-.13-5.862v-1.484a1,1,0,0,1,.928-.961,1.02,1.02,0,0,1,1.028.831c.03.13.03.289.063.419.033,1.15.063,2.3.1,3.491a.516.516,0,0,0,.033.223c0,.063.063.1.1.16.03-.03.093-.063.126-.1a1.856,1.856,0,0,1,.13-.256c.371-.928.768-1.889,1.184-2.82.223-.542.449-1.087.7-1.633a1.009,1.009,0,0,1,1.25-.545,1,1,0,0,1,.575,1.284,2.227,2.227,0,0,1-.16.416c-.545,1.313-1.091,2.66-1.666,3.94-.416.865-.865,1.7-1.313,2.53a.946.946,0,0,0-.1.961c.226.545.371,1.091.609,1.636a27.876,27.876,0,0,1,1.54,4.8,12.375,12.375,0,0,0,.608,2.145c.319.994.575,1.989.865,2.95a.994.994,0,1,1-1.892.608c-.16-.482-.286-.994-.445-1.506-.226-.672-.449-1.376-.675-2.052-.1-.371-.223-.672-.289-1.024a17.938,17.938,0,0,0-.928-3.428.853.853,0,0,0-.16-.286.873.873,0,0,0-.1.319c-.033,2.081-.063,4.2-.1,6.278,0,.419.033.835,0,1.217a1.854,1.854,0,0,1-.223.7.953.953,0,0,1-1.7-.371,3.142,3.142,0,0,1-.033-.575c0-3.042,0-6.055.033-9.1v-.371h-.063C507.874,882.353,507.93,881.485,507.93,880.621Z" transform="translate(-351.016 -600.731)"/><path class="u" d="M546.755,892.643a1.026,1.026,0,0,1-1.057-1.376,25.841,25.841,0,0,1,.994-3.076c.994-2.627,2.052-5.257,3.076-7.884a9.834,9.834,0,0,0,.371-4.356,3.317,3.317,0,0,0-.994-2.371c-.416-.416-.865-.371-1.024.223a10.1,10.1,0,0,0-.289,1.67,1.022,1.022,0,0,1-.9,1.087.909.909,0,0,1-1.087-.9,6.082,6.082,0,0,1,.449-2.82,2.542,2.542,0,0,1,4.163-.8,5.606,5.606,0,0,1,1.733,4,10.9,10.9,0,0,1-.545,5.061c-.579,1.41-1.154,2.82-1.7,4.263-.642,1.569-1.217,3.172-1.825,4.771-.193.482-.16.512.371.482l2.145-.1a1.113,1.113,0,0,1,1.221.994,1.024,1.024,0,0,1-1.091,1.087h-2.018v.033C548.068,892.643,547.4,892.672,546.755,892.643Z" transform="translate(-374.818 -600.257)"/><rect class="aj" width="164.41" height="3.035" transform="translate(79.054 310.974)"/><rect class="aj" width="164.41" height="3.035" transform="translate(79.054 324.639)"/><rect class="aj" width="164.41" height="3.035" transform="translate(79.054 338.301)"/><rect class="aj" width="164.41" height="3.035" transform="translate(79.054 351.962)"/><rect class="aj" width="164.41" height="3.035" transform="translate(79.054 365.627)"/><rect class="ak" width="26.87" height="26.87" rx="12.56" transform="translate(140.99 381.718)"/></g></g></svg>